<svg width="17" height="16" viewBox="0 0 17 16" fill="none" xmlns="http://www.w3.org/2000/svg">
<path d="M11.1673 8.59992V11.3999C11.1673 13.7333 10.234 14.6666 7.90065 14.6666H5.10065C2.76732 14.6666 1.83398 13.7333 1.83398 11.3999V8.59992C1.83398 6.26659 2.76732 5.33325 5.10065 5.33325H7.90065C10.234 5.33325 11.1673 6.26659 11.1673 8.59992Z" stroke="url(#paint0_linear_4418_47)" stroke-linecap="round" stroke-linejoin="round"/>
<path d="M15.1673 4.59992V7.39992C15.1673 9.73325 14.234 10.6666 11.9007 10.6666H11.1673V8.59992C11.1673 6.26659 10.234 5.33325 7.90065 5.33325H5.83398V4.59992C5.83398 2.26659 6.76732 1.33325 9.10065 1.33325H11.9007C14.234 1.33325 15.1673 2.26659 15.1673 4.59992Z" stroke="url(#paint1_linear_4418_47)" stroke-linecap="round" stroke-linejoin="round"/>
<defs>
<linearGradient id="paint0_linear_4418_47" x1="6.53329" y1="7.45446" x2="11.1673" y2="15.4824" gradientUnits="userSpaceOnUse">
<stop stop-color="#6922D1"/>
<stop offset="1" stop-color="#A143FF"/>
</linearGradient>
<linearGradient id="paint1_linear_4418_47" x1="10.5333" y1="3.45446" x2="15.1673" y2="11.4824" gradientUnits="userSpaceOnUse">
<stop stop-color="#6922D1"/>
<stop offset="1" stop-color="#A143FF"/>
</linearGradient>
</defs>
</svg>
