<svg width="23" height="24" viewBox="0 0 23 24" fill="none" xmlns="http://www.w3.org/2000/svg">
<path d="M21.5521 9.50133C21.1666 9.08577 20.7812 8.70033 20.6246 8.345C20.4981 7.98967 20.4981 7.44764 20.4981 6.93572C20.468 5.97212 20.468 4.85192 19.6971 4.08104C18.9262 3.31015 17.806 3.28004 16.8424 3.28004C16.3004 3.28004 15.7523 3.24993 15.4331 3.11743C15.0778 2.99096 14.6623 2.5754 14.2768 2.22007C13.5722 1.54554 12.8013 0.774658 11.7473 0.774658C10.7235 0.774658 9.92252 1.54554 9.24799 2.22007C8.83243 2.56938 8.44699 2.99096 8.06155 3.11743C7.74235 3.2439 7.1943 3.28004 6.68239 3.28004C5.68867 3.28004 4.59858 3.31015 3.8277 4.08104C3.05681 4.85192 3.0267 5.97212 3.0267 6.93572C2.99659 7.44764 2.99659 7.99569 2.86409 8.345C2.70148 8.69431 2.32206 9.07975 1.93662 9.50133C1.29823 10.1698 0.527344 10.9708 0.527344 12.0007C0.527344 13.0607 1.29823 13.8617 1.93662 14.5302C2.32206 14.9156 2.70751 15.3312 2.86409 15.6865C2.99057 16.0358 2.99057 16.5537 3.0267 17.0958C3.0267 18.0594 3.05681 19.1796 3.8277 19.9505C4.59858 20.7213 5.68867 20.7514 6.68239 20.7514C7.1943 20.7514 7.74235 20.7514 8.06155 20.9141C8.41688 21.0405 8.83243 21.4561 9.24799 21.8114C9.92252 22.4859 10.7235 23.2207 11.7473 23.2207C12.8073 23.2207 13.5722 22.4859 14.2768 21.8114C14.6623 21.4621 15.0778 21.0405 15.4331 20.9141C15.7523 20.7514 16.3004 20.7514 16.8424 20.7514C17.806 20.7514 18.9262 20.7213 19.6971 19.9505C20.468 19.1796 20.468 18.0594 20.4981 17.0958C20.4981 16.5537 20.4981 16.0358 20.6246 15.6865C20.7872 15.3312 21.1666 14.9156 21.5521 14.5302C22.2266 13.8556 22.9613 13.0546 22.9613 12.0007C22.9674 10.9708 22.2266 10.1698 21.5521 9.50133ZM16.4871 9.91689C16.457 10.0132 16.3907 10.1096 16.3245 10.1698L10.7175 15.7768C10.6512 15.8431 10.5549 15.9033 10.4585 15.9695C10.3622 15.9997 10.2357 15.9997 10.1393 15.9997C10.043 15.9997 9.94661 15.9997 9.85025 15.9695C9.75388 15.9033 9.65752 15.8431 9.59128 15.7768L7.18828 13.3738C7.02567 13.2112 6.93533 13.0185 6.93533 12.7957C6.93533 12.6029 7.03169 12.3801 7.18828 12.2536C7.31475 12.091 7.54361 11.9947 7.73031 11.9947C7.95314 11.9947 8.14586 12.091 8.30847 12.2536L10.1333 14.0785L15.1983 9.04362C15.2645 8.94726 15.3609 8.91714 15.4572 8.85089C15.5536 8.82078 15.65 8.78465 15.7463 8.78465C15.8427 8.78465 15.9692 8.81476 16.0655 8.85089C16.1619 8.91714 16.2582 8.94726 16.3245 9.04362C16.3907 9.10987 16.451 9.20623 16.4871 9.29656C16.5533 9.39292 16.5533 9.48929 16.5533 9.58565C16.5533 9.72416 16.5533 9.82053 16.4871 9.91689Z" fill="#2BB826"/>
<path d="M16.5555 9.59747C16.5555 9.72394 16.5555 9.8203 16.4893 9.91666C16.4591 10.013 16.3929 10.1094 16.3266 10.1696L10.7197 15.7766C10.6534 15.8428 10.557 15.9031 10.4607 15.9693C10.3643 15.9994 10.2379 15.9994 10.1415 15.9994C10.0451 15.9994 9.94877 15.9994 9.85241 15.9693C9.75605 15.9031 9.65969 15.8428 9.59344 15.7766L7.19045 13.3736C7.02784 13.211 6.9375 13.0183 6.9375 12.7954C6.9375 12.6027 7.03386 12.3799 7.19045 12.2534C7.31692 12.0908 7.54578 11.9944 7.73248 11.9944C7.95531 11.9944 8.14803 12.0908 8.31064 12.2534L10.1355 14.0782L15.2004 9.04339C15.2667 8.94703 15.363 8.91692 15.4594 8.85067C15.5558 8.82056 15.6521 8.78442 15.7485 8.78442C15.8448 8.78442 15.9713 8.81454 16.0677 8.85067C16.164 8.91692 16.2604 8.94703 16.3266 9.04339C16.3929 9.10964 16.4531 9.206 16.4893 9.29634C16.5555 9.40475 16.5555 9.50111 16.5555 9.59747Z" fill="white"/>
</svg>
