<svg width="41" height="12" viewBox="0 0 41 12" fill="none" xmlns="http://www.w3.org/2000/svg">
<path d="M21.3678 0.569118C21.3735 0.558504 21.38 0.558504 21.3879 0.569118L21.3762 0.579732L21.3679 0.569118H21.3678Z" fill="#0124DD"/>
<path d="M11.7123 4.22118C11.8337 3.80572 11.9489 3.41317 12.0615 3.02385C12.0753 2.97633 12.1036 2.96538 12.1401 2.95778C12.7483 2.8294 13.359 2.72006 13.9802 2.75482C14.4186 2.77812 14.8401 2.87935 15.2176 3.14555C15.7296 3.50589 15.9636 4.04862 15.9969 4.71416C16.0162 5.09679 15.9611 5.47465 15.9128 5.84927C15.8124 6.6126 15.709 7.37502 15.6119 8.13845C15.6065 8.20361 15.5701 8.26035 15.5169 8.28629C15.121 8.53202 14.6914 8.66659 14.2502 8.74826C13.9302 8.81038 13.6051 8.8426 13.2807 8.8426C13.0525 8.8426 12.8223 8.82619 12.5964 8.79548C12.1378 8.73033 11.7104 8.56921 11.3775 8.188C11.1058 7.87337 10.9532 7.4498 10.9532 7.00932C10.9532 6.50438 11.1534 6.02569 11.4985 5.70528C11.8398 5.38781 12.2432 5.22994 12.6681 5.12779C13.3117 4.97377 13.961 4.99475 14.6108 5.05078C14.6919 5.05747 14.7095 5.0294 14.7134 4.94763C14.7424 4.3744 14.4381 3.96269 13.9038 3.85203C13.5332 3.77502 13.1692 3.8416 12.8051 3.90908C12.4346 3.97748 12.0675 4.08266 11.7126 4.22108L11.7124 4.22118H11.7123ZM13.9853 5.9504C13.9761 5.9503 13.966 5.9503 13.9571 5.9503C13.7353 5.9503 13.5134 5.96945 13.2944 6.00776C13.0472 6.05528 12.8072 6.12895 12.608 6.31428C12.3828 6.52394 12.3226 6.80534 12.3672 7.11521C12.4092 7.39802 12.5841 7.55296 12.8106 7.64426C12.9145 7.6857 13.0226 7.71215 13.1322 7.72279C13.5374 7.76697 13.9308 7.68712 14.3217 7.57778C14.376 7.56978 14.4165 7.51729 14.4165 7.45528C14.4165 7.45477 14.4165 7.45416 14.4165 7.45375C14.4699 7.00455 14.5229 6.55484 14.5818 6.10666C14.5919 6.02914 14.5691 6.01444 14.512 6.00208C14.3382 5.96955 14.1614 5.95202 13.9853 5.9501L13.9854 5.9503L13.9853 5.9504Z" fill="#114185"/>
<path d="M30.4757 7.35231C30.4084 7.58334 30.3496 7.79006 30.2874 7.99688C30.2378 8.16661 30.1848 8.33482 30.1378 8.50597C30.1286 8.55947 30.0918 8.60152 30.0444 8.61236C29.4014 8.80631 28.7499 8.91129 28.0858 8.81675C27.3292 8.70883 26.7039 8.3414 26.3206 7.55669C26.0848 7.07091 26.0099 6.54186 26.0419 5.9967C26.1029 4.95957 26.4849 4.09967 27.1952 3.43372C27.6269 3.0287 28.1304 2.82057 28.6844 2.75876C29.0664 2.7164 29.4464 2.72451 29.8192 2.84195C30.5783 3.07967 31.0843 3.74745 31.1814 4.63156C31.2373 5.13964 31.1814 5.6388 31.1087 6.13836C31.0999 6.20068 31.0722 6.2025 31.0302 6.2025C30.8263 6.2025 30.622 6.2025 30.4182 6.2025C29.4375 6.2025 28.4568 6.2025 27.4761 6.2025C27.3971 6.2025 27.3739 6.22439 27.3727 6.31609C27.3618 7.06331 27.7266 7.55669 28.376 7.68265C28.856 7.7777 29.3229 7.69542 29.789 7.58041C30.0216 7.52204 30.2518 7.44452 30.4759 7.35201L30.4758 7.35231H30.4757ZM28.7609 5.23236H29.7023C29.9899 5.23236 29.9899 5.23236 29.9996 4.90718C30.0193 4.24883 29.6633 3.8197 29.0845 3.78312C28.3924 3.73893 27.7396 4.30599 27.5714 5.14724C27.5575 5.21706 27.5714 5.23418 27.6345 5.23378C28.009 5.23043 28.3827 5.23236 28.7609 5.23236Z" fill="#114185"/>
<path d="M32.8925 8.83429C32.2762 8.83044 31.6616 8.713 31.0777 8.49179C31.0192 8.46899 31.0037 8.44994 31.0247 8.3782C31.1208 8.04918 31.2128 7.71843 31.3008 7.38606C31.3226 7.30429 31.3483 7.31098 31.4063 7.34239C31.8105 7.56562 32.255 7.68225 32.705 7.68225C32.8771 7.68225 33.05 7.66472 33.2192 7.63129C33.3634 7.60656 33.5009 7.54272 33.6192 7.44595C33.7394 7.35171 33.8112 7.19678 33.8112 7.0314C33.8112 6.89136 33.7595 6.7574 33.6688 6.66205C33.562 6.55038 33.4419 6.45544 33.3124 6.38075C32.9908 6.17728 32.6639 5.98668 32.3583 5.75098C31.5375 5.11553 31.6375 3.79265 32.4458 3.21233C32.8039 2.95515 33.196 2.82635 33.6126 2.77741C34.3069 2.69614 34.9781 2.83061 35.6397 3.05597C35.7002 3.07644 35.7158 3.09498 35.6927 3.16764C35.5931 3.47994 35.4968 3.79407 35.4064 4.11022C35.3825 4.19342 35.3539 4.18723 35.2972 4.15775C34.898 3.94475 34.4614 3.83399 34.02 3.83399C34.0043 3.83399 33.9882 3.8344 33.9729 3.8344C33.7509 3.84058 33.5345 3.88192 33.3466 4.03027C33.222 4.12005 33.1465 4.2756 33.1465 4.44269C33.1465 4.49153 33.153 4.54027 33.1657 4.58689C33.2019 4.70169 33.2703 4.79999 33.3604 4.86686C33.555 5.03234 33.7777 5.14401 33.9908 5.27614C34.251 5.42935 34.5009 5.60881 34.7348 5.80935C35.4274 6.43102 35.3572 7.61558 34.6927 8.21729C34.264 8.60467 33.7621 8.75961 33.2284 8.81473C33.0943 8.82811 32.9611 8.83054 32.8926 8.83429H32.8925Z" fill="#114185"/>
<path d="M37.4269 8.83434C36.8182 8.82826 36.213 8.71295 35.6357 8.49529C35.5689 8.47006 35.5517 8.44776 35.5764 8.36791C35.6714 8.04568 35.7614 7.72152 35.8488 7.39635C35.8699 7.31741 35.8908 7.30606 35.9589 7.34315C36.3637 7.56588 36.809 7.682 37.259 7.682C37.4276 7.682 37.5969 7.66518 37.763 7.63316C37.8943 7.60995 38.0207 7.55686 38.1334 7.47731C38.4121 7.27627 38.4461 6.90692 38.2107 6.64832C38.1122 6.5482 38.0019 6.46228 37.884 6.39398C37.5478 6.17814 37.1985 5.98521 36.882 5.72854C36.152 5.132 36.2428 4.05252 36.6892 3.5107C36.9901 3.14611 37.3701 2.95033 37.7916 2.84525C38.3511 2.70268 38.9101 2.73693 39.4687 2.85387C39.7041 2.90139 39.9344 2.97364 40.1648 3.04396C40.2413 3.06818 40.269 3.09392 40.2366 3.19272C40.1395 3.49073 40.0512 3.79209 39.9655 4.09578C39.9416 4.17898 39.9176 4.19093 39.8452 4.15527C39.4452 3.94298 39.0077 3.83242 38.5655 3.83242C38.557 3.83242 38.5482 3.83242 38.5397 3.83242C38.3296 3.83668 38.1266 3.87184 37.9433 3.99638C37.7698 4.11382 37.6819 4.28446 37.708 4.51925C37.7244 4.66851 37.8038 4.77258 37.9038 4.8582C38.1139 5.03837 38.3557 5.15713 38.5843 5.2998C38.8449 5.46284 39.1021 5.63258 39.3295 5.85165C39.9667 6.46957 39.8948 7.61512 39.2555 8.20447C38.9121 8.52153 38.5137 8.68599 38.0837 8.77101C37.8666 8.81063 37.6466 8.83272 37.4265 8.83454L37.4268 8.83434H37.4269Z" fill="#114185"/>
<path d="M20.7746 7.43631C20.7531 7.57889 20.6988 7.70677 20.659 7.84133C20.5829 8.0975 20.5018 8.35134 20.4265 8.60801C20.4152 8.6606 20.3751 8.699 20.3274 8.70306C19.823 8.79811 19.3132 8.8585 18.8008 8.81472C18.0363 8.74957 17.3806 8.43443 16.93 7.69775C16.6123 7.17863 16.5 6.58878 16.5282 5.96762C16.5753 4.9314 16.9637 4.08346 17.6794 3.43413C18.0896 3.06245 18.5721 2.87995 19.0862 2.80385C19.3088 2.76879 19.534 2.75024 19.7586 2.75024C20.1745 2.75024 20.5898 2.81246 20.9917 2.93284C21.1102 2.96942 21.2245 3.0208 21.3409 3.06356C21.383 3.07876 21.3939 3.09923 21.3784 3.15101C21.2792 3.47892 21.1809 3.80794 21.088 4.13828C21.0674 4.21104 21.0384 4.19624 20.9968 4.1777C20.7002 4.04029 20.385 3.95649 20.0657 3.93096C19.3735 3.88678 18.7716 4.10211 18.3395 4.75377C17.9348 5.36459 17.8722 6.37892 18.3055 6.99208C18.5749 7.37237 18.9305 7.57392 19.3525 7.62945C19.8077 7.68934 20.2477 7.59003 20.6823 7.44888C20.71 7.43986 20.7382 7.43368 20.7664 7.42608L20.7746 7.43641V7.43631Z" fill="#114185"/>
<path d="M25.5678 7.42864C25.4711 7.74327 25.3602 8.05466 25.2807 8.37598C25.2231 8.61036 25.1261 8.72152 24.8999 8.74716C24.2695 8.8185 23.639 8.89835 23.0085 8.70957C22.017 8.41155 21.3693 7.517 21.3156 6.35432C21.2567 5.09092 21.6846 4.08136 22.5845 3.33465C22.9628 3.02143 23.4041 2.87308 23.8647 2.80509C24.0871 2.77023 24.3124 2.75159 24.5371 2.75159C24.953 2.75159 25.3678 2.8133 25.7697 2.93338C25.8848 2.96904 25.9954 3.02224 26.1102 3.05984C26.1703 3.0798 26.1719 3.11071 26.1522 3.17009C26.0559 3.48806 25.9605 3.80604 25.871 4.12645C25.8496 4.20296 25.824 4.20012 25.7689 4.17641C25.3284 3.98631 24.8779 3.88315 24.4025 3.93868C23.5951 4.03657 22.9806 4.6403 22.8255 5.52867C22.7137 6.1699 22.8163 6.75651 23.2682 7.21037C23.6284 7.57162 24.0667 7.67244 24.5337 7.64153C24.8625 7.61691 25.189 7.54628 25.5028 7.43229C25.5217 7.42864 25.5386 7.41111 25.568 7.42864H25.5678Z" fill="#114185"/>
<path d="M9.55477 6.12092L4.31897 0.199829V1.10867L8.75113 6.12092L8.75284 6.12285L4.91375 10.4645L4.90918 10.4592L1.07261 6.12092L1.0692 6.11717L2.95263 3.98719H2.13511L0.250061 6.119L0.251763 6.12092L4.90748 11.3861L4.90918 11.3842L9.55899 6.12569L9.55477 6.12092Z" fill="#FE6309"/>
<path d="M4.31716 1.73499V2.64383L7.39419 6.12365L4.91526 8.92708L2.43418 6.12172L2.43077 6.11797L4.31421 3.98799H3.49677L1.61163 6.1198L1.61334 6.12172L4.50461 9.39148L4.90899 9.84879L5.31999 9.38439L8.20033 6.12648L4.31716 1.73499Z" fill="#FE6309"/>
<path d="M6.84392 6.12194L5.30859 4.3837L4.9 3.92163L4.49823 4.376L2.95483 6.12001L4.49903 7.86636L4.90341 8.32357L5.31361 7.85916L6.84813 6.1266L6.84392 6.12184V6.12194ZM4.91049 7.4054L3.77568 6.12194L3.77227 6.11809L4.90412 4.83807L6.03902 6.12143L4.91049 7.4053V7.4054Z" fill="#FE6309"/>
</svg>
