<svg width="218" height="120" viewBox="0 0 218 120" fill="none" xmlns="http://www.w3.org/2000/svg">
<path d="M120.035 59.4218L120.035 58.6247L96.092 58.6247L96.092 59.1827C96.092 74.8066 86.5945 89.5536 71.6699 94.2567C46.8488 102.069 23.9432 83.6548 23.9432 60.0596C23.9432 41.0877 38.788 25.6232 57.4636 24.2681L57.4636 24.029L120.035 24.029L120.035 0.0351562L62.3321 0.0351537C30.4877 0.0351523 2.47413 23.8695 0.15962 55.5956C-2.87319 97.525 37.5908 131.324 81.0876 116.417C104.871 108.207 120.035 84.6114 120.035 59.4218Z" fill="url(#paint0_linear_2210_1335)"/>
<path d="M97.5127 59.307L97.5127 58.5098L121.456 58.5098L121.456 59.0678C121.456 74.6917 130.953 89.4387 145.878 94.1419C170.699 101.954 193.605 83.5399 193.605 59.9447C193.605 40.9728 178.76 25.5084 160.084 24.1532L160.084 23.9141L97.4329 23.9141L97.4329 -5.24693e-06L155.136 -2.72465e-06C186.98 -1.33269e-06 214.994 23.8344 217.308 55.5604C220.341 97.4898 179.877 131.288 136.38 116.382C112.517 108.171 97.3531 84.6559 97.3531 59.3867L97.5127 59.307Z" fill="url(#paint1_linear_2210_1335)"/>
<defs>
<linearGradient id="paint0_linear_2210_1335" x1="92.7543" y1="60.4371" x2="-10.4629" y2="120.053" gradientUnits="userSpaceOnUse">
<stop stop-color="#6922D1"/>
<stop offset="1" stop-color="#A143FF"/>
</linearGradient>
<linearGradient id="paint1_linear_2210_1335" x1="190.17" y1="60.402" x2="86.9183" y2="120.077" gradientUnits="userSpaceOnUse">
<stop stop-color="#6922D1"/>
<stop offset="1" stop-color="#A143FF"/>
</linearGradient>
</defs>
</svg>
