<svg width="62" height="13" viewBox="0 0 62 13" fill="none" xmlns="http://www.w3.org/2000/svg">
<mask id="path-1-outside-1_47_57369" maskUnits="userSpaceOnUse" x="0.278076" y="0.0991211" width="62" height="13" fill="black">
<rect fill="white" x="0.278076" y="0.0991211" width="62" height="13"/>
<path d="M0.772497 6.1932C0.772497 8.35217 2.51945 10.0991 4.67842 10.0991C6.83739 10.0991 8.58434 8.35217 8.58434 6.1932C8.58434 4.03423 6.83739 2.27079 4.67842 2.27079V3.8035C5.99687 3.8035 7.05164 4.87474 7.05164 6.1932C7.05164 7.49517 5.99687 8.56642 4.67842 8.56642C3.35996 8.56642 2.3052 7.49517 2.3052 6.1932V3.07835V1.21603V0.26015H0.772497V6.1932ZM17.388 6.1932C17.388 4.03423 15.641 2.27079 13.4821 2.27079C11.3231 2.27079 9.57615 4.03423 9.57615 6.1932C9.57615 8.35217 11.3231 10.0991 13.4821 10.0991V8.56642C12.1636 8.56642 11.1088 7.49517 11.1088 6.1932C11.1088 4.87474 12.1636 3.8035 13.4821 3.8035C14.8005 3.8035 15.8553 4.87474 15.8553 6.1932V9.29157V10.0991H17.388V6.1932ZM24.6589 10.0991H26.1916V6.1932C26.1916 4.03423 24.4447 2.27079 22.2857 2.27079C20.1267 2.27079 18.3798 4.03423 18.3798 6.1932V10.0991H19.9125V6.1932C19.9125 4.87474 20.9673 3.8035 22.2857 3.8035C23.6042 3.8035 24.6589 4.87474 24.6589 6.1932V10.0991ZM28.7162 2.30376H27.1834V10.0991H28.7162V2.30376ZM36.3849 8.94547L35.2972 7.87423C34.3743 8.79715 32.8581 8.79715 31.9352 7.87423C29.7267 5.64934 33.0888 2.28727 35.2972 4.51217L36.3849 3.42444C34.8522 1.89174 32.3801 1.89174 30.8474 3.42444C29.3312 4.94067 29.3312 7.42925 30.8474 8.94547C32.3801 10.4782 34.8522 10.4782 36.3849 8.94547ZM42.8295 6.20968C42.8295 7.52813 41.7748 8.5829 40.4563 8.5829C39.1379 8.5829 38.0831 7.52813 38.0831 6.20968C38.0831 4.89122 39.1379 3.83646 40.4563 3.83646C41.7748 3.83646 42.8295 4.89122 42.8295 6.20968ZM44.3622 6.20968C44.3622 4.05071 42.6153 2.30376 40.4563 2.30376C38.2973 2.30376 36.5504 4.05071 36.5504 6.20968C36.5504 8.36865 38.2973 10.1156 40.4563 10.1156C42.6153 10.1156 44.3622 8.36865 44.3622 6.20968ZM51.6332 6.20968C51.6332 7.52813 50.5784 8.5829 49.26 8.5829C47.9415 8.5829 46.8867 7.52813 46.8867 6.20968C46.8867 4.89122 47.9415 3.83646 49.26 3.83646C50.5784 3.83646 51.6332 4.89122 51.6332 6.20968ZM53.1659 6.20968C53.1659 4.05071 51.4189 2.30376 49.26 2.30376C47.101 2.30376 45.354 4.05071 45.354 6.20968C45.354 8.36865 47.101 10.1156 49.26 10.1156C51.4189 10.1156 53.1659 8.36865 53.1659 6.20968ZM58.0636 8.5829V10.1156C60.2226 10.1156 61.9695 8.36865 61.9695 6.20968C61.9695 4.05071 60.2226 2.30376 58.0636 2.30376C55.9046 2.30376 54.1577 4.05071 54.1577 6.20968V12.1427H55.6904V11.1704V9.30805V6.20968V6.1932C55.6904 4.89122 56.7616 3.83646 58.0636 3.83646C59.3821 3.83646 60.4368 4.89122 60.4368 6.20968C60.4368 7.52813 59.3821 8.5829 58.0636 8.5829Z"/>
</mask>
<path d="M0.772497 6.1932C0.772497 8.35217 2.51945 10.0991 4.67842 10.0991C6.83739 10.0991 8.58434 8.35217 8.58434 6.1932C8.58434 4.03423 6.83739 2.27079 4.67842 2.27079V3.8035C5.99687 3.8035 7.05164 4.87474 7.05164 6.1932C7.05164 7.49517 5.99687 8.56642 4.67842 8.56642C3.35996 8.56642 2.3052 7.49517 2.3052 6.1932V3.07835V1.21603V0.26015H0.772497V6.1932ZM17.388 6.1932C17.388 4.03423 15.641 2.27079 13.4821 2.27079C11.3231 2.27079 9.57615 4.03423 9.57615 6.1932C9.57615 8.35217 11.3231 10.0991 13.4821 10.0991V8.56642C12.1636 8.56642 11.1088 7.49517 11.1088 6.1932C11.1088 4.87474 12.1636 3.8035 13.4821 3.8035C14.8005 3.8035 15.8553 4.87474 15.8553 6.1932V9.29157V10.0991H17.388V6.1932ZM24.6589 10.0991H26.1916V6.1932C26.1916 4.03423 24.4447 2.27079 22.2857 2.27079C20.1267 2.27079 18.3798 4.03423 18.3798 6.1932V10.0991H19.9125V6.1932C19.9125 4.87474 20.9673 3.8035 22.2857 3.8035C23.6042 3.8035 24.6589 4.87474 24.6589 6.1932V10.0991ZM28.7162 2.30376H27.1834V10.0991H28.7162V2.30376ZM36.3849 8.94547L35.2972 7.87423C34.3743 8.79715 32.8581 8.79715 31.9352 7.87423C29.7267 5.64934 33.0888 2.28727 35.2972 4.51217L36.3849 3.42444C34.8522 1.89174 32.3801 1.89174 30.8474 3.42444C29.3312 4.94067 29.3312 7.42925 30.8474 8.94547C32.3801 10.4782 34.8522 10.4782 36.3849 8.94547ZM42.8295 6.20968C42.8295 7.52813 41.7748 8.5829 40.4563 8.5829C39.1379 8.5829 38.0831 7.52813 38.0831 6.20968C38.0831 4.89122 39.1379 3.83646 40.4563 3.83646C41.7748 3.83646 42.8295 4.89122 42.8295 6.20968ZM44.3622 6.20968C44.3622 4.05071 42.6153 2.30376 40.4563 2.30376C38.2973 2.30376 36.5504 4.05071 36.5504 6.20968C36.5504 8.36865 38.2973 10.1156 40.4563 10.1156C42.6153 10.1156 44.3622 8.36865 44.3622 6.20968ZM51.6332 6.20968C51.6332 7.52813 50.5784 8.5829 49.26 8.5829C47.9415 8.5829 46.8867 7.52813 46.8867 6.20968C46.8867 4.89122 47.9415 3.83646 49.26 3.83646C50.5784 3.83646 51.6332 4.89122 51.6332 6.20968ZM53.1659 6.20968C53.1659 4.05071 51.4189 2.30376 49.26 2.30376C47.101 2.30376 45.354 4.05071 45.354 6.20968C45.354 8.36865 47.101 10.1156 49.26 10.1156C51.4189 10.1156 53.1659 8.36865 53.1659 6.20968ZM58.0636 8.5829V10.1156C60.2226 10.1156 61.9695 8.36865 61.9695 6.20968C61.9695 4.05071 60.2226 2.30376 58.0636 2.30376C55.9046 2.30376 54.1577 4.05071 54.1577 6.20968V12.1427H55.6904V11.1704V9.30805V6.20968V6.1932C55.6904 4.89122 56.7616 3.83646 58.0636 3.83646C59.3821 3.83646 60.4368 4.89122 60.4368 6.20968C60.4368 7.52813 59.3821 8.5829 58.0636 8.5829Z" fill="#6922D1"/>
<path d="M4.67842 2.27079V2.15985H4.56747V2.27079H4.67842ZM4.67842 3.8035H4.56747V3.91444H4.67842V3.8035ZM2.3052 0.26015H2.41615V0.149204H2.3052V0.26015ZM0.772497 0.26015V0.149204H0.66155V0.26015H0.772497ZM0.66155 6.1932C0.66155 8.41344 2.45818 10.2101 4.67842 10.2101V9.98817C2.58072 9.98817 0.883444 8.29089 0.883444 6.1932H0.66155ZM4.67842 10.2101C6.89866 10.2101 8.69529 8.41344 8.69529 6.1932H8.4734C8.4734 8.29089 6.77612 9.98817 4.67842 9.98817V10.2101ZM8.69529 6.1932C8.69529 3.97356 6.89927 2.15985 4.67842 2.15985V2.38174C6.77551 2.38174 8.4734 4.09489 8.4734 6.1932H8.69529ZM4.56747 2.27079V3.8035H4.78937V2.27079H4.56747ZM4.67842 3.91444C5.9346 3.91444 6.94069 4.93501 6.94069 6.1932H7.16259C7.16259 4.81447 6.05915 3.69255 4.67842 3.69255V3.91444ZM6.94069 6.1932C6.94069 7.4344 5.9351 8.45547 4.67842 8.45547V8.67736C6.05865 8.67736 7.16259 7.55594 7.16259 6.1932H6.94069ZM4.67842 8.45547C3.42174 8.45547 2.41615 7.4344 2.41615 6.1932H2.19425C2.19425 7.55594 3.29819 8.67736 4.67842 8.67736V8.45547ZM2.41615 6.1932V3.07835H2.19425V6.1932H2.41615ZM2.41615 3.07835V1.21603H2.19425V3.07835H2.41615ZM2.41615 1.21603V0.26015H2.19425V1.21603H2.41615ZM2.3052 0.149204H0.772497V0.371097H2.3052V0.149204ZM0.66155 0.26015V6.1932H0.883444V0.26015H0.66155ZM13.4821 10.0991V10.2101H13.593V10.0991H13.4821ZM13.4821 8.56642H13.593V8.45547H13.4821V8.56642ZM15.8553 10.0991H15.7443V10.2101H15.8553V10.0991ZM17.388 10.0991V10.2101H17.4989V10.0991H17.388ZM17.4989 6.1932C17.4989 3.97356 15.7029 2.15985 13.4821 2.15985V2.38174C15.5792 2.38174 17.277 4.09489 17.277 6.1932H17.4989ZM13.4821 2.15985C11.2612 2.15985 9.4652 3.97356 9.4652 6.1932H9.68709C9.68709 4.09489 11.385 2.38174 13.4821 2.38174V2.15985ZM9.4652 6.1932C9.4652 8.41344 11.2618 10.2101 13.4821 10.2101V9.98817C11.3844 9.98817 9.68709 8.29089 9.68709 6.1932H9.4652ZM13.593 10.0991V8.56642H13.3711V10.0991H13.593ZM13.4821 8.45547C12.2254 8.45547 11.2198 7.4344 11.2198 6.1932H10.9979C10.9979 7.55594 12.1018 8.67736 13.4821 8.67736V8.45547ZM11.2198 6.1932C11.2198 4.93501 12.2259 3.91444 13.4821 3.91444V3.69255C12.1013 3.69255 10.9979 4.81447 10.9979 6.1932H11.2198ZM13.4821 3.91444C14.7383 3.91444 15.7443 4.93501 15.7443 6.1932H15.9662C15.9662 4.81447 14.8628 3.69255 13.4821 3.69255V3.91444ZM15.7443 6.1932V9.29157H15.9662V6.1932H15.7443ZM15.7443 9.29157V10.0991H15.9662V9.29157H15.7443ZM15.8553 10.2101H17.388V9.98817H15.8553V10.2101ZM17.4989 10.0991V6.1932H17.277V10.0991H17.4989ZM24.6589 10.0991H24.548V10.2101H24.6589V10.0991ZM26.1916 10.0991V10.2101H26.3026V10.0991H26.1916ZM18.3798 10.0991H18.2688V10.2101H18.3798V10.0991ZM19.9125 10.0991V10.2101H20.0234V10.0991H19.9125ZM24.6589 10.2101H26.1916V9.98817H24.6589V10.2101ZM26.3026 10.0991V6.1932H26.0807V10.0991H26.3026ZM26.3026 6.1932C26.3026 3.97356 24.5066 2.15985 22.2857 2.15985V2.38174C24.3828 2.38174 26.0807 4.09489 26.0807 6.1932H26.3026ZM22.2857 2.15985C20.0649 2.15985 18.2688 3.97356 18.2688 6.1932H18.4907C18.4907 4.09489 20.1886 2.38174 22.2857 2.38174V2.15985ZM18.2688 6.1932V10.0991H18.4907V6.1932H18.2688ZM18.3798 10.2101H19.9125V9.98817H18.3798V10.2101ZM20.0234 10.0991V6.1932H19.8016V10.0991H20.0234ZM20.0234 6.1932C20.0234 4.93501 21.0295 3.91444 22.2857 3.91444V3.69255C20.905 3.69255 19.8016 4.81447 19.8016 6.1932H20.0234ZM22.2857 3.91444C23.5419 3.91444 24.548 4.93501 24.548 6.1932H24.7699C24.7699 4.81447 23.6664 3.69255 22.2857 3.69255V3.91444ZM24.548 6.1932V10.0991H24.7699V6.1932H24.548ZM28.7162 2.30376H28.8271V2.19281H28.7162V2.30376ZM27.1834 2.30376V2.19281H27.0725V2.30376H27.1834ZM27.1834 10.0991H27.0725V10.2101H27.1834V10.0991ZM28.7162 10.0991V10.2101H28.8271V10.0991H28.7162ZM28.7162 2.19281H27.1834V2.4147H28.7162V2.19281ZM27.0725 2.30376V10.0991H27.2944V2.30376H27.0725ZM27.1834 10.2101H28.7162V9.98817H27.1834V10.2101ZM28.8271 10.0991V2.30376H28.6052V10.0991H28.8271ZM36.3849 8.94547L36.4634 9.02392L36.5424 8.94487L36.4628 8.86643L36.3849 8.94547ZM35.2972 7.87423L35.3751 7.79518L35.2966 7.71792L35.2188 7.79578L35.2972 7.87423ZM31.9352 7.87423L31.8564 7.95239L31.8567 7.95268L31.9352 7.87423ZM35.2972 4.51217L35.2185 4.59033L35.2969 4.66936L35.3757 4.59062L35.2972 4.51217ZM36.3849 3.42444L36.4634 3.50289L36.5419 3.42444L36.4634 3.34599L36.3849 3.42444ZM30.8474 3.42444L30.769 3.34599L30.8474 3.42444ZM30.8474 8.94547L30.9259 8.86702L30.8474 8.94547ZM36.4628 8.86643L35.3751 7.79518L35.2194 7.95328L36.3071 9.02452L36.4628 8.86643ZM35.2188 7.79578C34.3392 8.67537 32.8932 8.67537 32.0136 7.79578L31.8567 7.95268C32.823 8.91893 34.4094 8.91893 35.3757 7.95268L35.2188 7.79578ZM32.0139 7.79607C31.4833 7.26151 31.292 6.66499 31.329 6.10471C31.3661 5.54162 31.6346 5.00675 32.0383 4.60298C32.4421 4.1992 32.9758 3.93189 33.5366 3.89672C34.0945 3.86173 34.6879 4.05578 35.2185 4.59033L35.376 4.43401C34.8023 3.85611 34.1473 3.63609 33.5227 3.67526C32.901 3.71425 32.3182 4.00934 31.8814 4.44608C31.4447 4.88282 31.1487 5.46658 31.1075 6.0901C31.0662 6.71642 31.2828 7.3745 31.8564 7.95239L32.0139 7.79607ZM35.3757 4.59062L36.4634 3.50289L36.3065 3.34599L35.2188 4.43372L35.3757 4.59062ZM36.4634 3.34599C34.8874 1.76996 32.345 1.76996 30.769 3.34599L30.9259 3.50289C32.4153 2.01352 34.8171 2.01352 36.3065 3.50289L36.4634 3.34599ZM30.769 3.34599C29.2094 4.90554 29.2094 7.46437 30.769 9.02392L30.9259 8.86702C29.453 7.39413 29.453 4.97579 30.9259 3.50289L30.769 3.34599ZM30.769 9.02392C32.345 10.6 34.8874 10.6 36.4634 9.02392L36.3065 8.86702C34.8171 10.3564 32.4153 10.3564 30.9259 8.86702L30.769 9.02392ZM42.7186 6.20968C42.7186 7.46686 41.7135 8.47195 40.4563 8.47195V8.69384C41.836 8.69384 42.9405 7.58941 42.9405 6.20968H42.7186ZM40.4563 8.47195C39.1991 8.47195 38.194 7.46686 38.194 6.20968H37.9722C37.9722 7.58941 39.0766 8.69384 40.4563 8.69384V8.47195ZM38.194 6.20968C38.194 4.9525 39.1991 3.94741 40.4563 3.94741V3.72551C39.0766 3.72551 37.9722 4.82995 37.9722 6.20968H38.194ZM40.4563 3.94741C41.7135 3.94741 42.7186 4.9525 42.7186 6.20968H42.9405C42.9405 4.82995 41.836 3.72551 40.4563 3.72551V3.94741ZM44.4732 6.20968C44.4732 3.98943 42.6766 2.19281 40.4563 2.19281V2.4147C42.554 2.4147 44.2513 4.11198 44.2513 6.20968H44.4732ZM40.4563 2.19281C38.2361 2.19281 36.4394 3.98943 36.4394 6.20968H36.6613C36.6613 4.11198 38.3586 2.4147 40.4563 2.4147V2.19281ZM36.4394 6.20968C36.4394 8.42992 38.2361 10.2265 40.4563 10.2265V10.0047C38.3586 10.0047 36.6613 8.30737 36.6613 6.20968H36.4394ZM40.4563 10.2265C42.6766 10.2265 44.4732 8.42992 44.4732 6.20968H44.2513C44.2513 8.30737 42.554 10.0047 40.4563 10.0047V10.2265ZM51.5222 6.20968C51.5222 7.46686 50.5171 8.47195 49.26 8.47195V8.69384C50.6397 8.69384 51.7441 7.58941 51.7441 6.20968H51.5222ZM49.26 8.47195C48.0028 8.47195 46.9977 7.46686 46.9977 6.20968H46.7758C46.7758 7.58941 47.8802 8.69384 49.26 8.69384V8.47195ZM46.9977 6.20968C46.9977 4.9525 48.0028 3.94741 49.26 3.94741V3.72551C47.8802 3.72551 46.7758 4.82995 46.7758 6.20968H46.9977ZM49.26 3.94741C50.5171 3.94741 51.5222 4.9525 51.5222 6.20968H51.7441C51.7441 4.82995 50.6397 3.72551 49.26 3.72551V3.94741ZM53.2768 6.20968C53.2768 3.98943 51.4802 2.19281 49.26 2.19281V2.4147C51.3577 2.4147 53.0549 4.11198 53.0549 6.20968H53.2768ZM49.26 2.19281C47.0397 2.19281 45.2431 3.98943 45.2431 6.20968H45.465C45.465 4.11198 47.1623 2.4147 49.26 2.4147V2.19281ZM45.2431 6.20968C45.2431 8.42992 47.0397 10.2265 49.26 10.2265V10.0047C47.1623 10.0047 45.465 8.30737 45.465 6.20968H45.2431ZM49.26 10.2265C51.4802 10.2265 53.2768 8.42992 53.2768 6.20968H53.0549C53.0549 8.30737 51.3577 10.0047 49.26 10.0047V10.2265ZM58.0636 8.5829V8.47195H57.9527V8.5829H58.0636ZM58.0636 10.1156H57.9527V10.2265H58.0636V10.1156ZM54.1577 12.1427H54.0467V12.2537H54.1577V12.1427ZM55.6904 12.1427V12.2537H55.8013V12.1427H55.6904ZM57.9527 8.5829V10.1156H58.1746V8.5829H57.9527ZM58.0636 10.2265C60.2839 10.2265 62.0805 8.42992 62.0805 6.20968H61.8586C61.8586 8.30737 60.1613 10.0047 58.0636 10.0047V10.2265ZM62.0805 6.20968C62.0805 3.98943 60.2839 2.19281 58.0636 2.19281V2.4147C60.1613 2.4147 61.8586 4.11198 61.8586 6.20968H62.0805ZM58.0636 2.19281C55.8434 2.19281 54.0467 3.98943 54.0467 6.20968H54.2686C54.2686 4.11198 55.9659 2.4147 58.0636 2.4147V2.19281ZM54.0467 6.20968V12.1427H54.2686V6.20968H54.0467ZM54.1577 12.2537H55.6904V12.0318H54.1577V12.2537ZM55.8013 12.1427V11.1704H55.5794V12.1427H55.8013ZM55.8013 11.1704V9.30805H55.5794V11.1704H55.8013ZM55.8013 9.30805V6.20968H55.5794V9.30805H55.8013ZM55.8013 6.20968V6.1932H55.5794V6.20968H55.8013ZM55.8013 6.1932C55.8013 4.9535 56.8219 3.94741 58.0636 3.94741V3.72551C56.7014 3.72551 55.5794 4.82895 55.5794 6.1932H55.8013ZM58.0636 3.94741C59.3208 3.94741 60.3259 4.9525 60.3259 6.20968H60.5478C60.5478 4.82995 59.4433 3.72551 58.0636 3.72551V3.94741ZM60.3259 6.20968C60.3259 7.46686 59.3208 8.47195 58.0636 8.47195V8.69384C59.4433 8.69384 60.5478 7.58941 60.5478 6.20968H60.3259Z" fill="#6922D1" mask="url(#path-1-outside-1_47_57369)"/>
</svg>
