<svg width="20" height="20" viewBox="0 0 20 20" fill="none" xmlns="http://www.w3.org/2000/svg">
<path d="M6.66797 4.7915C6.3263 4.7915 6.04297 4.50817 6.04297 4.1665V1.6665C6.04297 1.32484 6.3263 1.0415 6.66797 1.0415C7.00964 1.0415 7.29297 1.32484 7.29297 1.6665V4.1665C7.29297 4.50817 7.00964 4.7915 6.66797 4.7915ZM13.3346 4.7915C12.993 4.7915 12.7096 4.50817 12.7096 4.1665V1.6665C12.7096 1.32484 12.993 1.0415 13.3346 1.0415C13.6763 1.0415 13.9596 1.32484 13.9596 1.6665V4.1665C13.9596 4.50817 13.6763 4.7915 13.3346 4.7915ZM7.08464 12.0815C6.9763 12.0815 6.86797 12.0565 6.76797 12.0148C6.65964 11.9732 6.5763 11.9148 6.49297 11.8398C6.34297 11.6815 6.2513 11.4732 6.2513 11.2482C6.2513 11.1398 6.2763 11.0315 6.31797 10.9315C6.35964 10.8315 6.41797 10.7398 6.49297 10.6565C6.5763 10.5815 6.65964 10.5232 6.76797 10.4815C7.06797 10.3565 7.44297 10.4232 7.6763 10.6565C7.8263 10.8148 7.91797 11.0315 7.91797 11.2482C7.91797 11.2982 7.90964 11.3565 7.9013 11.4148C7.89297 11.4648 7.8763 11.5148 7.8513 11.5648C7.83464 11.6148 7.80964 11.6648 7.7763 11.7148C7.7513 11.7565 7.70964 11.7982 7.6763 11.8398C7.51797 11.9898 7.3013 12.0815 7.08464 12.0815ZM10.0013 12.0823C9.89297 12.0823 9.78464 12.0573 9.68464 12.0157C9.5763 11.974 9.49297 11.9157 9.40964 11.8407C9.25964 11.6823 9.16797 11.474 9.16797 11.249C9.16797 11.1407 9.19297 11.0323 9.23464 10.9323C9.2763 10.8323 9.33464 10.7407 9.40964 10.6573C9.49297 10.5823 9.5763 10.524 9.68464 10.4823C9.98464 10.349 10.3596 10.424 10.593 10.6573C10.743 10.8157 10.8346 11.0323 10.8346 11.249C10.8346 11.299 10.8263 11.3573 10.818 11.4157C10.8096 11.4657 10.793 11.5157 10.768 11.5657C10.7513 11.6157 10.7263 11.6657 10.693 11.7157C10.668 11.7573 10.6263 11.799 10.593 11.8407C10.4346 11.9907 10.218 12.0823 10.0013 12.0823ZM12.918 12.0823C12.8096 12.0823 12.7013 12.0573 12.6013 12.0157C12.493 11.974 12.4096 11.9157 12.3263 11.8407L12.2263 11.7157C12.1947 11.6692 12.1695 11.6188 12.1513 11.5657C12.1272 11.5185 12.1104 11.4679 12.1013 11.4157C12.093 11.3573 12.0846 11.299 12.0846 11.249C12.0846 11.0323 12.1763 10.8157 12.3263 10.6573C12.4096 10.5823 12.493 10.524 12.6013 10.4823C12.9096 10.349 13.2763 10.424 13.5096 10.6573C13.6596 10.8157 13.7513 11.0323 13.7513 11.249C13.7513 11.299 13.743 11.3573 13.7346 11.4157C13.7263 11.4657 13.7096 11.5157 13.6846 11.5657C13.668 11.6157 13.643 11.6657 13.6096 11.7157C13.5846 11.7573 13.543 11.799 13.5096 11.8407C13.3513 11.9907 13.1346 12.0823 12.918 12.0823ZM7.08464 14.9998C6.9763 14.9998 6.86797 14.9748 6.76797 14.9332C6.66797 14.8915 6.5763 14.8332 6.49297 14.7582C6.34297 14.5998 6.2513 14.3832 6.2513 14.1665C6.2513 14.0582 6.2763 13.9498 6.31797 13.8498C6.35964 13.7415 6.41797 13.6498 6.49297 13.5748C6.8013 13.2665 7.36797 13.2665 7.6763 13.5748C7.8263 13.7332 7.91797 13.9498 7.91797 14.1665C7.91797 14.3832 7.8263 14.5998 7.6763 14.7582C7.51797 14.9082 7.3013 14.9998 7.08464 14.9998ZM10.0013 14.9998C9.78464 14.9998 9.56797 14.9082 9.40964 14.7582C9.25964 14.5998 9.16797 14.3832 9.16797 14.1665C9.16797 14.0582 9.19297 13.9498 9.23464 13.8498C9.2763 13.7415 9.33464 13.6498 9.40964 13.5748C9.71797 13.2665 10.2846 13.2665 10.593 13.5748C10.668 13.6498 10.7263 13.7415 10.768 13.8498C10.8096 13.9498 10.8346 14.0582 10.8346 14.1665C10.8346 14.3832 10.743 14.5998 10.593 14.7582C10.4346 14.9082 10.218 14.9998 10.0013 14.9998ZM12.918 14.9998C12.7013 14.9998 12.4846 14.9082 12.3263 14.7582C12.2492 14.6799 12.1895 14.5862 12.1513 14.4832C12.1085 14.383 12.0858 14.2754 12.0846 14.1665C12.0846 14.0582 12.1096 13.9498 12.1513 13.8498C12.193 13.7415 12.2513 13.6498 12.3263 13.5748C12.518 13.3832 12.8096 13.2915 13.0763 13.3498C13.1346 13.3582 13.1846 13.3748 13.2346 13.3998C13.2846 13.4165 13.3346 13.4415 13.3846 13.4748C13.4263 13.4998 13.468 13.5415 13.5096 13.5748C13.6596 13.7332 13.7513 13.9498 13.7513 14.1665C13.7513 14.3832 13.6596 14.5998 13.5096 14.7582C13.3513 14.9082 13.1346 14.9998 12.918 14.9998ZM17.0846 8.19984H2.91797C2.5763 8.19984 2.29297 7.9165 2.29297 7.57484C2.29297 7.23317 2.5763 6.94984 2.91797 6.94984H17.0846C17.4263 6.94984 17.7096 7.23317 17.7096 7.57484C17.7096 7.9165 17.4263 8.19984 17.0846 8.19984Z" fill="#6922D1"/>
<path d="M13.3333 18.9582H6.66667C3.625 18.9582 1.875 17.2082 1.875 14.1665V7.08317C1.875 4.0415 3.625 2.2915 6.66667 2.2915H13.3333C16.375 2.2915 18.125 4.0415 18.125 7.08317V14.1665C18.125 17.2082 16.375 18.9582 13.3333 18.9582ZM6.66667 3.5415C4.28333 3.5415 3.125 4.69984 3.125 7.08317V14.1665C3.125 16.5498 4.28333 17.7082 6.66667 17.7082H13.3333C15.7167 17.7082 16.875 16.5498 16.875 14.1665V7.08317C16.875 4.69984 15.7167 3.5415 13.3333 3.5415H6.66667Z" fill="#6922D1"/>
</svg>
