<svg width="16" height="17" viewBox="0 0 16 17" fill="none" xmlns="http://www.w3.org/2000/svg">
<path d="M14.6663 6.6665H1.33301C1.05967 6.6665 0.833008 6.43984 0.833008 6.1665C0.833008 5.89317 1.05967 5.6665 1.33301 5.6665H14.6663C14.9397 5.6665 15.1663 5.89317 15.1663 6.1665C15.1663 6.43984 14.9397 6.6665 14.6663 6.6665ZM5.33301 11.9998H3.99967C3.72634 11.9998 3.49967 11.7732 3.49967 11.4998C3.49967 11.2265 3.72634 10.9998 3.99967 10.9998H5.33301C5.60634 10.9998 5.83301 11.2265 5.83301 11.4998C5.83301 11.7732 5.60634 11.9998 5.33301 11.9998ZM9.66634 11.9998H6.99967C6.72634 11.9998 6.49967 11.7732 6.49967 11.4998C6.49967 11.2265 6.72634 10.9998 6.99967 10.9998H9.66634C9.93967 10.9998 10.1663 11.2265 10.1663 11.4998C10.1663 11.7732 9.93967 11.9998 9.66634 11.9998Z" fill="black"/>
<path d="M11.7063 14.6668H4.29301C1.63967 14.6668 0.833008 13.8668 0.833008 11.2402V5.76016C0.833008 3.1335 1.63967 2.3335 4.29301 2.3335H11.6997C14.353 2.3335 15.1597 3.1335 15.1597 5.76016V11.2335C15.1663 13.8668 14.3597 14.6668 11.7063 14.6668ZM4.29301 3.3335C2.19967 3.3335 1.83301 3.6935 1.83301 5.76016V11.2335C1.83301 13.3002 2.19967 13.6602 4.29301 13.6602H11.6997C13.793 13.6602 14.1597 13.3002 14.1597 11.2335V5.76016C14.1597 3.6935 13.793 3.3335 11.6997 3.3335H4.29301Z" fill="black"/>
</svg>
