<svg width="16" height="17" viewBox="0 0 16 17" fill="none" xmlns="http://www.w3.org/2000/svg">
<path d="M2.61943 11.5866C2.49276 11.5866 2.36609 11.5399 2.26609 11.4399C2.07276 11.2466 2.07276 10.9266 2.26609 10.7332L10.2328 2.76658C10.4261 2.57325 10.7461 2.57325 10.9394 2.76658C11.1328 2.95992 11.1328 3.27992 10.9394 3.47325L2.97276 11.4466C2.87943 11.5399 2.74609 11.5866 2.61943 11.5866Z" fill="#292D32"/>
<path d="M7.40068 13.1865C7.27401 13.1865 7.14734 13.1399 7.04734 13.0399C6.85401 12.8465 6.85401 12.5265 7.04734 12.3332L7.84734 11.5332C8.04068 11.3399 8.36068 11.3399 8.55401 11.5332C8.74734 11.7265 8.74734 12.0465 8.55401 12.2399L7.75401 13.0399C7.66068 13.1332 7.53401 13.1865 7.40068 13.1865Z" fill="#333333"/>
<path d="M9.19365 11.3934C9.06698 11.3934 8.94031 11.3468 8.84031 11.2468C8.64698 11.0534 8.64698 10.7334 8.84031 10.5401L10.4336 8.94676C10.627 8.75342 10.947 8.75342 11.1403 8.94676C11.3336 9.14009 11.3336 9.46009 11.1403 9.65342L9.54698 11.2468C9.45365 11.3401 9.32031 11.3934 9.19365 11.3934Z" fill="#292D32"/>
<path d="M7.39929 15.6664C6.74596 15.6664 6.09262 15.2664 5.29929 14.4731L2.02596 11.1998C0.432625 9.60645 0.439292 8.57978 2.04596 6.97311L6.47262 2.54645C8.07929 0.93978 9.10596 0.933113 10.6993 2.52645L13.9726 5.79978C15.566 7.39311 15.5593 8.41978 13.9526 10.0264L9.52596 14.4531C8.71929 15.2598 8.05929 15.6664 7.39929 15.6664ZM8.59929 2.33311C8.25262 2.33311 7.81262 2.61978 7.17929 3.25311L2.75262 7.67978C2.11929 8.31311 1.83263 8.75311 1.83263 9.09311C1.83263 9.43978 2.09929 9.85978 2.73262 10.4931L6.00596 13.7664C6.63929 14.3998 7.05263 14.6664 7.39929 14.6664C7.39929 14.6664 7.39929 14.6664 7.40596 14.6664C7.75262 14.6664 8.18596 14.3798 8.81929 13.7464L13.246 9.31978C13.8793 8.68645 14.166 8.24645 14.166 7.90645C14.166 7.55978 13.8993 7.13978 13.266 6.50645L9.99262 3.23311C9.36596 2.59978 8.94596 2.33311 8.59929 2.33311Z" fill="#292D32"/>
<path d="M14.6654 15.6665H1.33203C1.0587 15.6665 0.832031 15.4398 0.832031 15.1665C0.832031 14.8932 1.0587 14.6665 1.33203 14.6665H14.6654C14.9387 14.6665 15.1654 14.8932 15.1654 15.1665C15.1654 15.4398 14.9387 15.6665 14.6654 15.6665Z" fill="#292D32"/>
</svg>
