<svg width="16" height="17" viewBox="0 0 16 17" fill="none" xmlns="http://www.w3.org/2000/svg">
<path d="M5.66659 13.1666H5.33325C2.66659 13.1666 1.33325 12.4999 1.33325 9.16659V5.83325C1.33325 3.16659 2.66659 1.83325 5.33325 1.83325H10.6666C13.3333 1.83325 14.6666 3.16659 14.6666 5.83325V9.16659C14.6666 11.8333 13.3333 13.1666 10.6666 13.1666H10.3333C10.1266 13.1666 9.92659 13.2666 9.79992 13.4333L8.79992 14.7666C8.35992 15.3533 7.63992 15.3533 7.19992 14.7666L6.19992 13.4333C6.09325 13.2866 5.84659 13.1666 5.66659 13.1666Z" stroke="black" stroke-miterlimit="10" stroke-linecap="round" stroke-linejoin="round"/>
<path d="M4.66675 5.83325H11.3334M4.66675 9.16659H8.66675" stroke="black" stroke-linecap="round" stroke-linejoin="round"/>
</svg>
