<svg width="33" height="31" viewBox="0 0 33 31" fill="none" xmlns="http://www.w3.org/2000/svg">
<rect x="0.776628" y="0.776628" width="30.8432" height="28.6243" stroke="#6922D1" stroke-width="1.55326"/>
<path d="M14.083 19.808C14.083 22.3709 16.1607 24.4486 18.7236 24.4486C21.2865 24.4486 23.3642 22.3709 23.3642 19.808C23.3642 17.245 21.2865 15.1674 18.7236 15.1674" stroke="#6922D1" stroke-width="1.94983"/>
<path d="M8.87573 17.0544C11.417 17.3866 13.7465 15.5957 14.0786 13.0544" stroke="#6922D1" stroke-width="1.94983"/>
<line x1="14.0831" y1="8.36243" x2="14.0831" y2="19.8079" stroke="#6922D1" stroke-width="1.94983"/>
<path d="M15.2431 6.9585C15.2431 7.61 14.7149 8.13815 14.0634 8.13815C13.4119 8.13815 12.8838 7.61 12.8838 6.9585C12.8838 6.307 13.4119 5.77885 14.0634 5.77885C14.7149 5.77885 15.2431 6.307 15.2431 6.9585Z" fill="#6922D1" stroke="#6922D1" stroke-width="0.0194983"/>
</svg>
