<svg width="94" height="107" viewBox="0 0 94 107" fill="none" xmlns="http://www.w3.org/2000/svg">
<path d="M93.2542 62.0917L85.2186 16.4306C83.882 6.99102 76.2442 0 67.2538 0H26.2005C17.2101 0 9.5564 6.99102 8.2357 16.4306L0.200068 62.0917C-0.802396 69.201 2.01405 76.3271 7.48783 80.5487L36.0342 102.569C42.399 107.483 51.0234 107.483 57.4042 102.569L85.9506 80.5487C91.4402 76.3271 94.2408 69.201 93.2383 62.0917H93.2542ZM45.7247 66.2289C33.3291 66.2289 25.3253 57.6675 25.3253 45.2052C25.3253 32.743 33.711 24.1815 45.5656 24.1815C51.2462 24.1815 56.0039 26.3092 59.9501 30.4464L54.4923 36.2554C52.0577 33.7899 49.1935 32.5741 45.7724 32.5741C38.8984 32.5741 34.252 37.6232 34.252 45.2052C34.252 52.7873 38.8984 57.8363 45.7724 57.8363C49.4004 57.8363 52.8056 56.401 55.3038 53.8173L60.4911 59.964C56.3858 64.1519 51.453 66.2289 45.7247 66.2289ZM65.2966 50.3894C62.6075 50.3894 60.4116 48.0759 60.4116 45.2052C60.4116 42.3345 62.5915 40.0211 65.2966 40.0211C68.0017 40.0211 70.1816 42.3345 70.1816 45.2052C70.1816 48.0759 68.0017 50.3894 65.2966 50.3894Z" fill="#016AFF"/>
</svg>
