<svg width="17" height="21" viewBox="0 0 17 21" fill="none" xmlns="http://www.w3.org/2000/svg">
<path d="M6.08301 14.8081C6.08301 17.371 8.16067 19.4487 10.7236 19.4487C13.2865 19.4487 15.3642 17.371 15.3642 14.8081C15.3642 12.2451 13.2865 10.1675 10.7236 10.1675" stroke="#6922D1" stroke-width="1.94983"/>
<path d="M0.875728 12.0545C3.41704 12.3866 5.74645 10.5958 6.07861 8.05444" stroke="#6922D1" stroke-width="1.94983"/>
<line x1="6.08307" y1="3.36255" x2="6.08307" y2="14.8081" stroke="#6922D1" stroke-width="1.94983"/>
<path d="M7.24307 1.95868C7.24307 2.61019 6.71492 3.13833 6.06342 3.13833C5.41192 3.13833 4.88377 2.61019 4.88377 1.95868C4.88377 1.30718 5.41192 0.779036 6.06342 0.779036C6.71492 0.779036 7.24307 1.30718 7.24307 1.95868Z" fill="#6922D1" stroke="#6922D1" stroke-width="0.0194983"/>
</svg>
