<svg width="16" height="16" viewBox="0 0 16 16" fill="none" xmlns="http://www.w3.org/2000/svg">
<g clip-path="url(#clip0_47_57534)">
<path d="M5.66671 12.6673H5.33337C2.66671 12.6673 1.33337 12.0007 1.33337 8.66732V5.33398C1.33337 2.66732 2.66671 1.33398 5.33337 1.33398H10.6667C13.3334 1.33398 14.6667 2.66732 14.6667 5.33398V8.66732C14.6667 11.334 13.3334 12.6673 10.6667 12.6673H10.3334C10.1267 12.6673 9.92671 12.7673 9.80004 12.934L8.80004 14.2673C8.36004 14.854 7.64004 14.854 7.20004 14.2673L6.20004 12.934C6.09337 12.7873 5.84671 12.6673 5.66671 12.6673Z" stroke="#6922D1" stroke-miterlimit="10" stroke-linecap="round" stroke-linejoin="round"/>
<path d="M4.66663 5.33398H11.3333M4.66663 8.66732H8.66663" stroke="#6922D1" stroke-linecap="round" stroke-linejoin="round"/>
</g>
<defs>
<clipPath id="clip0_47_57534">
<rect width="16" height="16" fill="white"/>
</clipPath>
</defs>
</svg>
