<svg width="4" height="13" viewBox="0 0 4 13" fill="none" xmlns="http://www.w3.org/2000/svg">
<path d="M1.9987 7.20947C2.36689 7.20947 2.66536 6.911 2.66536 6.54281C2.66536 6.17462 2.36689 5.87614 1.9987 5.87614C1.63051 5.87614 1.33203 6.17462 1.33203 6.54281C1.33203 6.911 1.63051 7.20947 1.9987 7.20947Z" stroke="#333333" stroke-linecap="round" stroke-linejoin="round"/>
<path d="M1.9987 2.54281C2.36689 2.54281 2.66536 2.24433 2.66536 1.87614C2.66536 1.50795 2.36689 1.20947 1.9987 1.20947C1.63051 1.20947 1.33203 1.50795 1.33203 1.87614C1.33203 2.24433 1.63051 2.54281 1.9987 2.54281Z" stroke="#333333" stroke-linecap="round" stroke-linejoin="round"/>
<path d="M1.9987 11.8761C2.36689 11.8761 2.66536 11.5777 2.66536 11.2095C2.66536 10.8413 2.36689 10.5428 1.9987 10.5428C1.63051 10.5428 1.33203 10.8413 1.33203 11.2095C1.33203 11.5777 1.63051 11.8761 1.9987 11.8761Z" stroke="#333333" stroke-linecap="round" stroke-linejoin="round"/>
</svg>
