<svg width="16" height="16" viewBox="0 0 16 16" fill="none" xmlns="http://www.w3.org/2000/svg">
<path d="M8.00005 4.29398V6.51399M8.01339 1.33398C5.56005 1.33398 3.57339 3.32065 3.57339 5.77398V7.17399C3.57339 7.62732 3.38672 8.30732 3.15339 8.69399L2.30672 10.1073C1.78672 10.9807 2.14672 11.954 3.10672 12.274C6.29424 13.334 9.7392 13.334 12.9267 12.274C13.137 12.2038 13.3289 12.0873 13.4882 11.933C13.6474 11.7788 13.77 11.5907 13.8468 11.3827C13.9236 11.1747 13.9527 10.9521 13.9319 10.7313C13.9111 10.5106 13.841 10.2973 13.7267 10.1073L12.8801 8.69399C12.6467 8.30732 12.4601 7.62065 12.4601 7.17399V5.77398C12.4534 3.33398 10.4534 1.33398 8.01339 1.33398Z" stroke="#6922D1" stroke-miterlimit="10" stroke-linecap="round"/>
<path d="M10.22 12.5466C10.22 13.7666 9.22003 14.7666 8.00003 14.7666C7.39336 14.7666 6.83336 14.5133 6.43336 14.1133C6.03336 13.7133 5.78003 13.1533 5.78003 12.5466" stroke="#6922D1" stroke-miterlimit="10"/>
</svg>
