<svg width="16" height="16" viewBox="0 0 16 16" fill="none" xmlns="http://www.w3.org/2000/svg">
<path d="M7.34797 13H5.0013C4.58797 13 4.2213 12.9867 3.89464 12.94C2.1413 12.7467 1.66797 11.92 1.66797 9.66667V6.33333C1.66797 4.08 2.1413 3.25333 3.89464 3.06C4.2213 3.01333 4.58797 3 5.0013 3H7.30797" stroke="#6922D1" stroke-linecap="round" stroke-linejoin="round"/>
<path d="M10.0117 3H10.9984C11.4117 3 11.7784 3.01333 12.1051 3.06C13.8584 3.25333 14.3317 4.08 14.3317 6.33333V9.66667C14.3317 11.92 13.8584 12.7467 12.1051 12.94C11.7784 12.9867 11.4117 13 10.9984 13H10.0117" stroke="#6922D1" stroke-linecap="round" stroke-linejoin="round"/>
<path d="M10 1.33301V14.6663" stroke="#292D32" stroke-width="1.5" stroke-linecap="round" stroke-linejoin="round"/>
<path d="M7.39608 8.00033H7.40207" stroke="#292D32" stroke-width="2" stroke-linecap="round" stroke-linejoin="round"/>
<path d="M4.72811 8.00033H4.7341" stroke="#292D32" stroke-width="2" stroke-linecap="round" stroke-linejoin="round"/>
</svg>
