<svg width="16" height="17" viewBox="0 0 16 17" fill="none" xmlns="http://www.w3.org/2000/svg">
<path d="M12.0015 5.77318C11.9815 5.77318 11.9682 5.77318 11.9482 5.77318H11.9148C10.6548 5.73318 9.71484 4.75985 9.71484 3.55984C9.71484 2.33318 10.7148 1.33984 11.9348 1.33984C13.1548 1.33984 14.1548 2.33984 14.1548 3.55984C14.1482 4.76651 13.2082 5.73985 12.0082 5.77985C12.0082 5.77318 12.0082 5.77318 12.0015 5.77318ZM11.9348 2.33318C11.2615 2.33318 10.7148 2.87985 10.7148 3.55318C10.7148 4.21318 11.2282 4.74652 11.8882 4.77318C11.8948 4.76652 11.9482 4.76652 12.0082 4.77318C12.6548 4.73985 13.1548 4.20652 13.1615 3.55318C13.1615 2.87985 12.6148 2.33318 11.9348 2.33318Z" fill="#292D32"/>
<path d="M12.007 10.6866C11.747 10.6866 11.487 10.6666 11.227 10.6199C10.9537 10.5733 10.7737 10.3133 10.8203 10.0399C10.867 9.7666 11.127 9.5866 11.4003 9.63327C12.2203 9.77327 13.087 9.61994 13.667 9.23327C13.9803 9.02661 14.147 8.7666 14.147 8.5066C14.147 8.2466 13.9737 7.99327 13.667 7.7866C13.087 7.39993 12.207 7.2466 11.3803 7.39327C11.107 7.4466 10.847 7.25993 10.8003 6.9866C10.7537 6.71327 10.9337 6.45327 11.207 6.4066C12.2937 6.21327 13.4203 6.41993 14.2203 6.95327C14.807 7.3466 15.147 7.9066 15.147 8.5066C15.147 9.09993 14.8137 9.66661 14.2203 10.0666C13.6137 10.4666 12.827 10.6866 12.007 10.6866Z" fill="#333333"/>
<path d="M3.98031 5.7735C3.97365 5.7735 3.96698 5.7735 3.96698 5.7735C2.76698 5.7335 1.82698 4.76016 1.82031 3.56016C1.82031 2.33349 2.82031 1.3335 4.04031 1.3335C5.26031 1.3335 6.26031 2.3335 6.26031 3.5535C6.26031 4.76016 5.32031 5.7335 4.12031 5.7735L3.98031 5.2735L4.02698 5.7735C4.01365 5.7735 3.99365 5.7735 3.98031 5.7735ZM4.04698 4.7735C4.08698 4.7735 4.12031 4.77349 4.16031 4.78016C4.75365 4.75349 5.27365 4.22016 5.27365 3.56016C5.27365 2.88683 4.72698 2.34016 4.05365 2.34016C3.38031 2.34016 2.83365 2.88683 2.83365 3.56016C2.83365 4.21349 3.34031 4.74016 3.98698 4.78016C3.99365 4.77349 4.02031 4.7735 4.04698 4.7735Z" fill="#292D32"/>
<path d="M3.97203 10.6866C3.15203 10.6866 2.36536 10.4666 1.7587 10.0666C1.17203 9.67327 0.832031 9.1066 0.832031 8.5066C0.832031 7.91327 1.17203 7.3466 1.7587 6.95327C2.5587 6.41993 3.68536 6.21327 4.77203 6.4066C5.04536 6.45327 5.22536 6.71327 5.1787 6.9866C5.13203 7.25993 4.87203 7.4466 4.5987 7.39327C3.77203 7.2466 2.8987 7.39993 2.31203 7.7866C1.9987 7.99327 1.83203 8.2466 1.83203 8.5066C1.83203 8.7666 2.00537 9.02661 2.31203 9.23327C2.89203 9.61994 3.7587 9.77327 4.5787 9.63327C4.85203 9.5866 5.11203 9.77327 5.1587 10.0399C5.20537 10.3133 5.02536 10.5733 4.75203 10.6199C4.49203 10.6666 4.23203 10.6866 3.97203 10.6866Z" fill="#292D32"/>
<path d="M8.00151 10.7532C7.98151 10.7532 7.96818 10.7532 7.94818 10.7532H7.91484C6.65484 10.7132 5.71484 9.73983 5.71484 8.53983C5.71484 7.31316 6.71484 6.31982 7.93484 6.31982C9.15484 6.31982 10.1548 7.31983 10.1548 8.53983C10.1482 9.74649 9.20818 10.7198 8.00818 10.7598C8.00818 10.7532 8.00818 10.7532 8.00151 10.7532ZM7.93484 7.31316C7.26151 7.31316 6.71484 7.85983 6.71484 8.53316C6.71484 9.19316 7.22818 9.7265 7.88818 9.75316C7.89485 9.7465 7.94818 9.7465 8.00818 9.75316C8.65484 9.71983 9.15485 9.1865 9.16151 8.53316C9.16151 7.8665 8.61485 7.31316 7.93484 7.31316Z" fill="#292D32"/>
<path d="M7.99823 15.6735C7.19823 15.6735 6.39823 15.4668 5.77823 15.0468C5.19156 14.6535 4.85156 14.0935 4.85156 13.4935C4.85156 12.9002 5.1849 12.3268 5.77823 11.9335C7.0249 11.1068 8.97823 11.1068 10.2182 11.9335C10.8049 12.3268 11.1449 12.8868 11.1449 13.4868C11.1449 14.0801 10.8116 14.6535 10.2182 15.0468C9.59823 15.4602 8.79823 15.6735 7.99823 15.6735ZM6.33156 12.7735C6.01823 12.9801 5.85156 13.2401 5.85156 13.5001C5.85156 13.7601 6.0249 14.0135 6.33156 14.2201C7.23156 14.8268 8.75823 14.8268 9.65823 14.2201C9.97157 14.0135 10.1382 13.7535 10.1382 13.4935C10.1382 13.2335 9.9649 12.9801 9.65823 12.7735C8.7649 12.1668 7.23823 12.1735 6.33156 12.7735Z" fill="#292D32"/>
</svg>
