<svg width="16" height="17" viewBox="0 0 16 17" fill="none" xmlns="http://www.w3.org/2000/svg">
<path d="M2.20146 15.6664C1.96146 15.6664 1.72812 15.6064 1.52812 15.4864C1.08145 15.2264 0.828125 14.7064 0.828125 14.0598V6.48643C0.828125 5.06643 1.98145 3.91309 3.40145 3.91309H8.58813C10.0081 3.91309 11.1615 5.06643 11.1615 6.48643V14.0598C11.1615 14.7064 10.9081 15.2198 10.4615 15.4864C10.0148 15.7464 9.44146 15.7197 8.8748 15.4064L6.2548 13.9464C6.12813 13.8731 5.86145 13.8731 5.73478 13.9464L3.11479 15.4064C2.80812 15.5797 2.49479 15.6664 2.20146 15.6664ZM3.40812 4.91976C2.54146 4.91976 1.8348 5.62642 1.8348 6.49308V14.0664C1.8348 14.3398 1.9148 14.5531 2.04146 14.6264C2.16813 14.6998 2.39481 14.6664 2.63481 14.5331L5.2548 13.0731C5.68147 12.8397 6.32146 12.8397 6.74813 13.0731L9.36812 14.5331C9.60812 14.6664 9.82813 14.6998 9.96147 14.6264C10.0881 14.5531 10.1681 14.3398 10.1681 14.0664V6.49308C10.1681 5.62642 9.46147 4.91976 8.59481 4.91976H3.40812Z" fill="#292D32"/>
<path d="M9.79203 15.6667C9.4987 15.6667 9.19204 15.5801 8.8787 15.4134L6.25871 13.9534C6.13204 13.8867 5.85868 13.8867 5.73202 13.9534L3.11869 15.4134C2.55203 15.7267 1.97202 15.7534 1.53202 15.4934C1.08536 15.2334 0.832031 14.7134 0.832031 14.0734V6.50008C0.832031 5.08008 1.98535 3.92676 3.40535 3.92676H8.59204C10.012 3.92676 11.1654 5.08008 11.1654 6.50008V14.0734C11.1654 14.7134 10.912 15.2334 10.4654 15.4934C10.2654 15.6067 10.0387 15.6667 9.79203 15.6667ZM5.9987 12.9001C6.26536 12.9001 6.52536 12.9601 6.74536 13.0801L9.36536 14.5401C9.60536 14.6734 9.83203 14.7067 9.9587 14.6267C10.0854 14.5534 10.1654 14.3401 10.1654 14.0668V6.49341C10.1654 5.62674 9.45871 4.92008 8.59204 4.92008H3.40535C2.53869 4.92008 1.83203 5.62674 1.83203 6.49341V14.0668C1.83203 14.3401 1.91203 14.5534 2.0387 14.6267C2.16536 14.7001 2.39204 14.6667 2.63204 14.5334L5.25203 13.0734C5.46537 12.9601 5.73203 12.9001 5.9987 12.9001Z" fill="#333333"/>
<path d="M13.792 13.0798C13.4987 13.0798 13.192 12.9932 12.8787 12.8265L10.4187 11.4532C10.2587 11.3665 10.1654 11.1998 10.1654 11.0198V6.49984C10.1654 5.63317 9.45871 4.92651 8.59204 4.92651H5.33203C5.0587 4.92651 4.83203 4.69985 4.83203 4.42651V3.91317C4.83203 2.49317 5.98535 1.33984 7.40535 1.33984H12.592C14.012 1.33984 15.1654 2.49317 15.1654 3.91317V11.4865C15.1654 12.1265 14.912 12.6465 14.4654 12.9065C14.2654 13.0198 14.0387 13.0798 13.792 13.0798ZM11.1654 10.7198L13.3654 11.9532C13.6054 12.0865 13.8254 12.1198 13.9587 12.0398C14.092 11.9598 14.1654 11.7532 14.1654 11.4798V3.90649C14.1654 3.03983 13.4587 2.33317 12.592 2.33317H7.40535C6.53869 2.33317 5.83203 3.03983 5.83203 3.90649V3.91984H8.59204C10.012 3.91984 11.1654 5.07316 11.1654 6.49316V10.7198Z" fill="#292D32"/>
</svg>
