<svg width="87" height="86" viewBox="0 0 87 86" fill="none" xmlns="http://www.w3.org/2000/svg">
<path d="M43.5006 0.295898C19.8536 0.295898 0.583984 19.3784 0.583984 42.7959C0.583984 66.2134 19.8536 85.2959 43.5006 85.2959C67.1477 85.2959 86.4173 66.2134 86.4173 42.7959C86.4173 19.3784 67.1477 0.295898 43.5006 0.295898ZM64.0148 33.0209L39.6811 57.1184C39.0802 57.7134 38.2648 58.0534 37.4065 58.0534C36.5481 58.0534 35.7327 57.7134 35.1319 57.1184L22.9865 45.0909C21.7419 43.8584 21.7419 41.8184 22.9865 40.5859C24.2311 39.3534 26.2911 39.3534 27.5356 40.5859L37.4065 50.3609L59.4657 28.5159C60.7102 27.2834 62.7702 27.2834 64.0148 28.5159C65.2594 29.7484 65.2594 31.7459 64.0148 33.0209Z" fill="#27AE60"/>
</svg>
