<svg width="24" height="25" viewBox="0 0 24 25" fill="none" xmlns="http://www.w3.org/2000/svg">
<path d="M21.9995 9.79272H1.99951C1.58951 9.79272 1.24951 9.45272 1.24951 9.04272C1.24951 8.63272 1.58951 8.29272 1.99951 8.29272H21.9995C22.4095 8.29272 22.7495 8.63272 22.7495 9.04272C22.7495 9.45272 22.4095 9.79272 21.9995 9.79272ZM7.99951 17.7927H5.99951C5.58951 17.7927 5.24951 17.4527 5.24951 17.0427C5.24951 16.6327 5.58951 16.2927 5.99951 16.2927H7.99951C8.40951 16.2927 8.74951 16.6327 8.74951 17.0427C8.74951 17.4527 8.40951 17.7927 7.99951 17.7927ZM14.4995 17.7927H10.4995C10.0895 17.7927 9.74951 17.4527 9.74951 17.0427C9.74951 16.6327 10.0895 16.2927 10.4995 16.2927H14.4995C14.9095 16.2927 15.2495 16.6327 15.2495 17.0427C15.2495 17.4527 14.9095 17.7927 14.4995 17.7927Z" fill="#6922D1"/>
<path d="M17.5595 21.7932H6.43951C2.45951 21.7932 1.24951 20.5932 1.24951 16.6532V8.43321C1.24951 4.49321 2.45951 3.29321 6.43951 3.29321H17.5495C21.5295 3.29321 22.7395 4.49321 22.7395 8.43321V16.6432C22.7495 20.5932 21.5395 21.7932 17.5595 21.7932ZM6.43951 4.79321C3.29951 4.79321 2.74951 5.33321 2.74951 8.43321V16.6432C2.74951 19.7432 3.29951 20.2832 6.43951 20.2832H17.5495C20.6895 20.2832 21.2395 19.7432 21.2395 16.6432V8.43321C21.2395 5.33321 20.6895 4.79321 17.5495 4.79321H6.43951Z" fill="#6922D1"/>
</svg>
