<svg width="24" height="25" viewBox="0 0 24 25" fill="none" xmlns="http://www.w3.org/2000/svg">
<path d="M9.15957 12.163C9.12957 12.163 9.10957 12.163 9.07957 12.163C9.02957 12.153 8.95957 12.153 8.89957 12.163C5.99957 12.073 3.80957 9.79297 3.80957 6.98297C3.80957 4.12297 6.13957 1.79297 8.99957 1.79297C11.8596 1.79297 14.1896 4.12297 14.1896 6.98297C14.1796 9.79297 11.9796 12.073 9.18957 12.163C9.17957 12.163 9.16957 12.163 9.15957 12.163ZM8.99957 3.29297C6.96957 3.29297 5.30957 4.95297 5.30957 6.98297C5.30957 8.98297 6.86957 10.593 8.85957 10.663C8.91957 10.653 9.04957 10.653 9.17957 10.663C11.1396 10.573 12.6796 8.96297 12.6896 6.98297C12.6896 4.95297 11.0296 3.29297 8.99957 3.29297Z" fill="#6922D1"/>
<path d="M16.5396 12.293C16.5096 12.293 16.4796 12.293 16.4496 12.283C16.0396 12.323 15.6196 12.033 15.5796 11.623C15.5396 11.213 15.7896 10.843 16.1996 10.793C16.3196 10.783 16.4496 10.783 16.5596 10.783C18.0196 10.703 19.1596 9.50297 19.1596 8.03297C19.1596 6.51297 17.9296 5.28297 16.4096 5.28297C15.9996 5.29297 15.6596 4.95297 15.6596 4.54297C15.6596 4.13297 15.9996 3.79297 16.4096 3.79297C18.7496 3.79297 20.6596 5.70297 20.6596 8.04297C20.6596 10.343 18.8596 12.203 16.5696 12.293C16.5596 12.293 16.5496 12.293 16.5396 12.293Z" fill="#6922D1"/>
<path d="M9.16961 23.093C7.20961 23.093 5.23961 22.593 3.74961 21.593C2.35961 20.673 1.59961 19.413 1.59961 18.043C1.59961 16.673 2.35961 15.403 3.74961 14.473C6.74961 12.483 11.6096 12.483 14.5896 14.473C15.9696 15.393 16.7396 16.653 16.7396 18.023C16.7396 19.393 15.9796 20.663 14.5896 21.593C13.0896 22.593 11.1296 23.093 9.16961 23.093ZM4.57961 15.733C3.61961 16.373 3.09961 17.193 3.09961 18.053C3.09961 18.903 3.62961 19.723 4.57961 20.353C7.06961 22.023 11.2696 22.023 13.7596 20.353C14.7196 19.713 15.2396 18.893 15.2396 18.033C15.2396 17.183 14.7096 16.363 13.7596 15.733C11.2696 14.073 7.06961 14.073 4.57961 15.733Z" fill="#6922D1"/>
<path d="M18.3396 21.293C17.9896 21.293 17.6796 21.053 17.6096 20.693C17.5296 20.283 17.7896 19.893 18.1896 19.803C18.8196 19.673 19.3996 19.423 19.8496 19.073C20.4196 18.643 20.7296 18.103 20.7296 17.533C20.7296 16.963 20.4196 16.423 19.8596 16.003C19.4196 15.663 18.8696 15.423 18.2196 15.273C17.8196 15.183 17.5596 14.783 17.6496 14.373C17.7396 13.973 18.1396 13.713 18.5496 13.803C19.4096 13.993 20.1596 14.333 20.7696 14.803C21.6996 15.503 22.2296 16.493 22.2296 17.533C22.2296 18.573 21.6896 19.563 20.7596 20.273C20.1396 20.753 19.3596 21.103 18.4996 21.273C18.4396 21.293 18.3896 21.293 18.3396 21.293Z" fill="#6922D1"/>
</svg>
