<svg width="16" height="17" viewBox="0 0 16 17" fill="none" xmlns="http://www.w3.org/2000/svg">
<path d="M7.1937 10.6134C7.06036 10.6134 6.9337 10.56 6.84036 10.4667L5.22703 8.85335C5.0337 8.66002 5.0337 8.34002 5.22703 8.14669C5.42036 7.95335 5.74036 7.95335 5.9337 8.14669L7.1937 9.40669L10.0604 6.54002C10.2537 6.34669 10.5737 6.34669 10.767 6.54002C10.9604 6.73335 10.9604 7.05335 10.767 7.24669L7.54703 10.4667C7.4537 10.56 7.32703 10.6134 7.1937 10.6134Z" fill="#292D32"/>
<path d="M7.99927 15.6668C7.57927 15.6668 7.15927 15.5268 6.8326 15.2468L5.77927 14.3402C5.6726 14.2468 5.40594 14.1535 5.26594 14.1535H4.11927C3.1326 14.1535 2.3326 13.3535 2.3326 12.3668V11.2268C2.3326 11.0868 2.23927 10.8268 2.14594 10.7202L1.24594 9.66016C0.699271 9.0135 0.699271 7.9935 1.24594 7.34683L2.14594 6.28683C2.23927 6.18016 2.3326 5.92016 2.3326 5.78016V4.6335C2.3326 3.64683 3.1326 2.84683 4.11927 2.84683H5.2726C5.4126 2.84683 5.67927 2.74683 5.78594 2.66016L6.83927 1.7535C7.4926 1.1935 8.5126 1.1935 9.16594 1.7535L10.2193 2.66016C10.3259 2.7535 10.5926 2.84683 10.7326 2.84683H11.8659C12.8526 2.84683 13.6526 3.64683 13.6526 4.6335V5.76683C13.6526 5.90683 13.7526 6.1735 13.8459 6.28016L14.7526 7.3335C15.3126 7.98683 15.3126 9.00683 14.7526 9.66016L13.8459 10.7135C13.7526 10.8202 13.6526 11.0868 13.6526 11.2268V12.3602C13.6526 13.3468 12.8526 14.1468 11.8659 14.1468H10.7326C10.5926 14.1468 10.3259 14.2468 10.2193 14.3335L9.16594 15.2402C8.83927 15.5268 8.41927 15.6668 7.99927 15.6668ZM4.11927 3.84683C3.68594 3.84683 3.3326 4.20016 3.3326 4.6335V5.7735C3.3326 6.1535 3.1526 6.64016 2.90594 6.92683L2.00594 7.98683C1.7726 8.26016 1.7726 8.7335 2.00594 9.00683L2.90594 10.0668C3.1526 10.3602 3.3326 10.8402 3.3326 11.2202V12.3602C3.3326 12.7935 3.68594 13.1468 4.11927 13.1468H5.2726C5.65927 13.1468 6.14594 13.3268 6.43927 13.5802L7.4926 14.4868C7.76594 14.7202 8.24594 14.7202 8.51927 14.4868L9.5726 13.5802C9.86594 13.3335 10.3526 13.1468 10.7393 13.1468H11.8726C12.3059 13.1468 12.6593 12.7935 12.6593 12.3602V11.2268C12.6593 10.8402 12.8393 10.3535 13.0926 10.0602L13.9993 9.00683C14.2326 8.7335 14.2326 8.2535 13.9993 7.98016L13.0926 6.92683C12.8393 6.6335 12.6593 6.14683 12.6593 5.76016V4.6335C12.6593 4.20016 12.3059 3.84683 11.8726 3.84683H10.7393C10.3526 3.84683 9.86594 3.66683 9.5726 3.4135L8.51927 2.50683C8.24594 2.2735 7.76594 2.2735 7.4926 2.50683L6.43927 3.42016C6.14594 3.66683 5.6526 3.84683 5.2726 3.84683H4.11927Z" fill="#333333"/>
</svg>
