<svg width="10" height="10" viewBox="0 0 10 10" fill="none" xmlns="http://www.w3.org/2000/svg">
<mask id="path-1-inside-1_3227_836" fill="white">
<path d="M4.99935 5.31217C3.67852 5.31217 2.60352 4.23717 2.60352 2.91634C2.60352 1.59551 3.67852 0.520508 4.99935 0.520508C6.32018 0.520508 7.39518 1.59551 7.39518 2.91634C7.39518 4.23717 6.32018 5.31217 4.99935 5.31217ZM4.99935 1.14551C4.02435 1.14551 3.22852 1.94134 3.22852 2.91634C3.22852 3.89134 4.02435 4.68717 4.99935 4.68717C5.97435 4.68717 6.77018 3.89134 6.77018 2.91634C6.77018 1.94134 5.97435 1.14551 4.99935 1.14551Z"/>
</mask>
<path d="M4.99935 5.31217C3.67852 5.31217 2.60352 4.23717 2.60352 2.91634C2.60352 1.59551 3.67852 0.520508 4.99935 0.520508C6.32018 0.520508 7.39518 1.59551 7.39518 2.91634C7.39518 4.23717 6.32018 5.31217 4.99935 5.31217ZM4.99935 1.14551C4.02435 1.14551 3.22852 1.94134 3.22852 2.91634C3.22852 3.89134 4.02435 4.68717 4.99935 4.68717C5.97435 4.68717 6.77018 3.89134 6.77018 2.91634C6.77018 1.94134 5.97435 1.14551 4.99935 1.14551Z" fill="#292D32"/>
<path d="M4.99935 4.31217C4.2308 4.31217 3.60352 3.68489 3.60352 2.91634H1.60352C1.60352 4.78946 3.12623 6.31217 4.99935 6.31217V4.31217ZM3.60352 2.91634C3.60352 2.14779 4.2308 1.52051 4.99935 1.52051V-0.479492C3.12623 -0.479492 1.60352 1.04322 1.60352 2.91634H3.60352ZM4.99935 1.52051C5.7679 1.52051 6.39518 2.14779 6.39518 2.91634H8.39518C8.39518 1.04322 6.87247 -0.479492 4.99935 -0.479492V1.52051ZM6.39518 2.91634C6.39518 3.68489 5.7679 4.31217 4.99935 4.31217V6.31217C6.87247 6.31217 8.39518 4.78946 8.39518 2.91634H6.39518ZM4.99935 0.145508C3.47206 0.145508 2.22852 1.38906 2.22852 2.91634H4.22852C4.22852 2.49363 4.57663 2.14551 4.99935 2.14551V0.145508ZM2.22852 2.91634C2.22852 4.44363 3.47206 5.68717 4.99935 5.68717V3.68717C4.57663 3.68717 4.22852 3.33906 4.22852 2.91634H2.22852ZM4.99935 5.68717C6.52663 5.68717 7.77018 4.44363 7.77018 2.91634H5.77018C5.77018 3.33906 5.42206 3.68717 4.99935 3.68717V5.68717ZM7.77018 2.91634C7.77018 1.38906 6.52663 0.145508 4.99935 0.145508V2.14551C5.42206 2.14551 5.77018 2.49363 5.77018 2.91634H7.77018Z" fill="#6922D1" mask="url(#path-1-inside-1_3227_836)"/>
<mask id="path-3-inside-2_3227_836" fill="white">
<path d="M1.42188 9.47917C1.25104 9.47917 1.10938 9.3375 1.10938 9.16667C1.10938 7.3875 2.85521 5.9375 5.00104 5.9375C5.42187 5.9375 5.83437 5.99168 6.23437 6.10418C6.40104 6.15001 6.49688 6.32084 6.45104 6.4875C6.40521 6.65417 6.23437 6.75001 6.06771 6.70418C5.72604 6.60834 5.36771 6.5625 5.00104 6.5625C3.20104 6.5625 1.73438 7.72917 1.73438 9.16667C1.73438 9.3375 1.59271 9.47917 1.42188 9.47917Z"/>
</mask>
<path d="M1.42188 9.47917C1.25104 9.47917 1.10938 9.3375 1.10938 9.16667C1.10938 7.3875 2.85521 5.9375 5.00104 5.9375C5.42187 5.9375 5.83437 5.99168 6.23437 6.10418C6.40104 6.15001 6.49688 6.32084 6.45104 6.4875C6.40521 6.65417 6.23437 6.75001 6.06771 6.70418C5.72604 6.60834 5.36771 6.5625 5.00104 6.5625C3.20104 6.5625 1.73438 7.72917 1.73438 9.16667C1.73438 9.3375 1.59271 9.47917 1.42188 9.47917Z" fill="#292D32"/>
<path d="M6.23437 6.10418L5.96362 7.06684L5.96921 7.06838L6.23437 6.10418ZM6.06771 6.70418L5.79764 7.66703L5.80255 7.66838L6.06771 6.70418ZM1.73438 9.16667L0.734375 9.16667L1.73438 9.16667ZM1.42188 8.47917C1.80333 8.47917 2.10938 8.78522 2.10938 9.16667H0.109375C0.109375 9.88979 0.698757 10.4792 1.42188 10.4792V8.47917ZM2.10938 9.16667C2.10938 8.10611 3.225 6.9375 5.00104 6.9375V4.9375C2.48541 4.9375 0.109375 6.66889 0.109375 9.16667H2.10938ZM5.00104 6.9375C5.33537 6.9375 5.65646 6.98044 5.96362 7.06683L6.50512 5.14153C6.01228 5.00292 5.50837 4.9375 5.00104 4.9375V6.9375ZM5.96921 7.06838C5.59694 6.96601 5.388 6.58175 5.48684 6.22235L7.41525 6.75266C7.60575 6.05992 7.20513 5.33401 6.49953 5.13997L5.96921 7.06838ZM5.48684 6.22235C5.58922 5.85004 5.97349 5.64115 6.33286 5.73997L5.80255 7.66838C6.49525 7.85888 7.2212 7.4583 7.41525 6.75266L5.48684 6.22235ZM6.33777 5.74134C5.90074 5.61875 5.45091 5.5625 5.00104 5.5625V7.5625C5.2845 7.5625 5.55134 7.59794 5.79764 7.66702L6.33777 5.74134ZM5.00104 5.5625C2.87278 5.5625 0.734375 6.97678 0.734375 9.16667H2.73438C2.73438 8.48155 3.5293 7.5625 5.00104 7.5625V5.5625ZM0.734375 9.16667C0.734375 8.78522 1.04042 8.47917 1.42188 8.47917V10.4792C2.14499 10.4792 2.73438 9.88979 2.73438 9.16667L0.734375 9.16667Z" fill="#6922D1" mask="url(#path-3-inside-2_3227_836)"/>
<mask id="path-5-inside-3_3227_836" fill="white">
<path d="M7.50065 9.47884C7.00898 9.47884 6.54231 9.29552 6.17981 8.96635C6.03398 8.84135 5.90481 8.68718 5.80481 8.51634C5.62148 8.21634 5.52148 7.86217 5.52148 7.49967C5.52148 6.97884 5.72148 6.49134 6.07982 6.12051C6.45482 5.73301 6.95898 5.52051 7.50065 5.52051C8.06732 5.52051 8.60482 5.76218 8.97148 6.17885C9.29648 6.54135 9.47982 7.00801 9.47982 7.49967C9.47982 7.65801 9.45899 7.81634 9.41732 7.96634C9.37565 8.15384 9.29648 8.34968 9.18815 8.52051C8.84231 9.11218 8.19232 9.47884 7.50065 9.47884ZM7.50065 6.14551C7.12982 6.14551 6.78816 6.29133 6.52982 6.55383C6.28399 6.808 6.14648 7.14134 6.14648 7.49967C6.14648 7.74551 6.21315 7.98717 6.34232 8.1955C6.40898 8.31217 6.49648 8.41633 6.59648 8.50383C6.84648 8.733 7.16732 8.85801 7.50065 8.85801C7.97148 8.85801 8.41732 8.60801 8.65898 8.20384C8.72982 8.08718 8.78398 7.95385 8.81315 7.82469C8.84232 7.71635 8.85482 7.61218 8.85482 7.50385C8.85482 7.17051 8.72982 6.84969 8.50482 6.59969C8.25482 6.30802 7.88815 6.14551 7.50065 6.14551Z"/>
</mask>
<path d="M7.50065 9.47884C7.00898 9.47884 6.54231 9.29552 6.17981 8.96635C6.03398 8.84135 5.90481 8.68718 5.80481 8.51634C5.62148 8.21634 5.52148 7.86217 5.52148 7.49967C5.52148 6.97884 5.72148 6.49134 6.07982 6.12051C6.45482 5.73301 6.95898 5.52051 7.50065 5.52051C8.06732 5.52051 8.60482 5.76218 8.97148 6.17885C9.29648 6.54135 9.47982 7.00801 9.47982 7.49967C9.47982 7.65801 9.45899 7.81634 9.41732 7.96634C9.37565 8.15384 9.29648 8.34968 9.18815 8.52051C8.84231 9.11218 8.19232 9.47884 7.50065 9.47884ZM7.50065 6.14551C7.12982 6.14551 6.78816 6.29133 6.52982 6.55383C6.28399 6.808 6.14648 7.14134 6.14648 7.49967C6.14648 7.74551 6.21315 7.98717 6.34232 8.1955C6.40898 8.31217 6.49648 8.41633 6.59648 8.50383C6.84648 8.733 7.16732 8.85801 7.50065 8.85801C7.97148 8.85801 8.41732 8.60801 8.65898 8.20384C8.72982 8.08718 8.78398 7.95385 8.81315 7.82469C8.84232 7.71635 8.85482 7.61218 8.85482 7.50385C8.85482 7.17051 8.72982 6.84969 8.50482 6.59969C8.25482 6.30802 7.88815 6.14551 7.50065 6.14551Z" fill="#292D32"/>
<path d="M6.17981 8.96635L6.85206 8.22602L6.84147 8.21641L6.8306 8.20709L6.17981 8.96635ZM5.80481 8.51634L6.66783 8.01116L6.66304 8.00298L6.6581 7.99489L5.80481 8.51634ZM6.07982 6.12051L5.36121 5.42509L5.36069 5.42563L6.07982 6.12051ZM8.97148 6.17885L8.22074 6.8395L8.22691 6.84639L8.97148 6.17885ZM9.41732 7.96634L8.4538 7.6987L8.44681 7.72389L8.44113 7.74941L9.41732 7.96634ZM9.18815 8.52051L8.34364 7.98497L8.33394 8.00026L8.32481 8.01589L9.18815 8.52051ZM6.52982 6.55383L5.81706 5.85238L5.81103 5.85861L6.52982 6.55383ZM6.34232 8.1955L7.21056 7.69936L7.20167 7.6838L7.19222 7.66856L6.34232 8.1955ZM6.59648 8.50383L7.2722 7.76668L7.26368 7.75887L7.25498 7.75125L6.59648 8.50383ZM8.65898 8.20384L7.80418 7.68485L7.80071 7.69065L8.65898 8.20384ZM8.81315 7.82469L7.84753 7.56471L7.84221 7.58447L7.83771 7.60443L8.81315 7.82469ZM8.50482 6.59969L7.74556 7.25048L7.75343 7.25966L7.76153 7.26865L8.50482 6.59969ZM7.50065 8.47884C7.26125 8.47884 7.0333 8.3906 6.85206 8.22602L5.50756 9.70667C6.05133 10.2004 6.75672 10.4788 7.50065 10.4788V8.47884ZM6.8306 8.20709C6.76963 8.15483 6.71202 8.08666 6.66783 8.01116L4.9418 9.02152C5.09761 9.28769 5.29833 9.52787 5.52902 9.72561L6.8306 8.20709ZM6.6581 7.99489C6.57187 7.8538 6.52148 7.6804 6.52148 7.49967H4.52148C4.52148 8.04394 4.67109 8.57889 4.95153 9.03779L6.6581 7.99489ZM6.52148 7.49967C6.52148 7.24064 6.61902 7.00159 6.79894 6.81539L5.36069 5.42563C4.82395 5.9811 4.52148 6.71704 4.52148 7.49967H6.52148ZM6.79842 6.81593C6.98352 6.62466 7.22771 6.52051 7.50065 6.52051V4.52051C6.69026 4.52051 5.92611 4.84136 5.36121 5.42509L6.79842 6.81593ZM7.50065 6.52051C7.78473 6.52051 8.0471 6.64212 8.22077 6.83948L9.7222 5.51822C9.16254 4.88224 8.3499 4.52051 7.50065 4.52051V6.52051ZM8.22691 6.84639C8.39104 7.02945 8.47982 7.25972 8.47982 7.49967H10.4798C10.4798 6.75629 10.2019 6.05324 9.71605 5.5113L8.22691 6.84639ZM8.47982 7.49967C8.47982 7.57154 8.47022 7.63961 8.4538 7.6987L10.3808 8.23398C10.4478 7.99307 10.4798 7.74448 10.4798 7.49967H8.47982ZM8.44113 7.74941C8.42404 7.82634 8.38863 7.91402 8.34364 7.98497L10.0327 9.05606C10.2043 8.78534 10.3273 8.48134 10.3935 8.18327L8.44113 7.74941ZM8.32481 8.01589C8.16234 8.29384 7.84506 8.47884 7.50065 8.47884V10.4788C8.53958 10.4788 9.52228 9.93052 10.0515 9.02514L8.32481 8.01589ZM7.50065 5.14551C6.85778 5.14551 6.26053 5.4018 5.81708 5.85241L7.24256 7.25526C7.31578 7.18086 7.40185 7.14551 7.50065 7.14551V5.14551ZM5.81103 5.85861C5.38714 6.29687 5.14648 6.87859 5.14648 7.49967H7.14648C7.14648 7.40409 7.18084 7.31913 7.24862 7.24906L5.81103 5.85861ZM5.14648 7.49967C5.14648 7.92544 5.26189 8.35062 5.49242 8.72244L7.19222 7.66856C7.16442 7.62372 7.14648 7.56558 7.14648 7.49967H5.14648ZM5.47408 8.69164C5.59998 8.91198 5.7607 9.10129 5.93797 9.25641L7.25498 7.75125C7.23226 7.73137 7.21799 7.71235 7.21056 7.69936L5.47408 8.69164ZM5.92075 9.24098C6.35317 9.63737 6.91441 9.85801 7.50065 9.85801V7.85801C7.42023 7.85801 7.33979 7.82863 7.2722 7.76668L5.92075 9.24098ZM7.50065 9.85801C8.31915 9.85801 9.09293 9.42668 9.51726 8.71704L7.80071 7.69065C7.7417 7.78934 7.62382 7.85801 7.50065 7.85801V9.85801ZM9.51377 8.72282C9.63912 8.51636 9.73495 8.28249 9.78859 8.04495L7.83771 7.60443C7.83301 7.62522 7.82051 7.65799 7.8042 7.68486L9.51377 8.72282ZM9.77876 8.08466C9.83238 7.88553 9.85482 7.6935 9.85482 7.50385H7.85482C7.85482 7.53085 7.85225 7.54718 7.84753 7.56471L9.77876 8.08466ZM9.85482 7.50385C9.85482 6.91849 9.63502 6.36061 9.24811 5.93072L7.76153 7.26865C7.82462 7.33876 7.85482 7.42253 7.85482 7.50385H9.85482ZM9.26408 5.94889C8.8162 5.42637 8.16772 5.14551 7.50065 5.14551V7.14551C7.60858 7.14551 7.69344 7.18967 7.74556 7.25048L9.26408 5.94889Z" fill="#6922D1" mask="url(#path-5-inside-3_3227_836)"/>
<mask id="path-7-inside-4_3227_836" fill="white">
<path d="M8.12474 7.80371H6.87891C6.70807 7.80371 6.56641 7.66204 6.56641 7.49121C6.56641 7.32038 6.70807 7.17871 6.87891 7.17871H8.12474C8.29557 7.17871 8.43724 7.32038 8.43724 7.49121C8.43724 7.66204 8.29557 7.80371 8.12474 7.80371Z"/>
</mask>
<path d="M8.12474 7.80371H6.87891C6.70807 7.80371 6.56641 7.66204 6.56641 7.49121C6.56641 7.32038 6.70807 7.17871 6.87891 7.17871H8.12474C8.29557 7.17871 8.43724 7.32038 8.43724 7.49121C8.43724 7.66204 8.29557 7.80371 8.12474 7.80371Z" fill="#292D32"/>
<path d="M8.12474 6.80371H6.87891V8.80371H8.12474V6.80371ZM6.87891 6.80371C7.26036 6.80371 7.56641 7.10976 7.56641 7.49121H5.56641C5.56641 8.21433 6.15579 8.80371 6.87891 8.80371V6.80371ZM7.56641 7.49121C7.56641 7.87266 7.26036 8.17871 6.87891 8.17871V6.17871C6.15579 6.17871 5.56641 6.76809 5.56641 7.49121H7.56641ZM6.87891 8.17871H8.12474V6.17871H6.87891V8.17871ZM8.12474 8.17871C7.74328 8.17871 7.43724 7.87266 7.43724 7.49121H9.43724C9.43724 6.76809 8.84785 6.17871 8.12474 6.17871V8.17871ZM7.43724 7.49121C7.43724 7.10976 7.74328 6.80371 8.12474 6.80371V8.80371C8.84785 8.80371 9.43724 8.21433 9.43724 7.49121H7.43724Z" fill="#6922D1" mask="url(#path-7-inside-4_3227_836)"/>
<mask id="path-9-inside-5_3227_836" fill="white">
<path d="M7.5 8.44212C7.32917 8.44212 7.1875 8.30045 7.1875 8.12962V6.88379C7.1875 6.71296 7.32917 6.57129 7.5 6.57129C7.67083 6.57129 7.8125 6.71296 7.8125 6.88379V8.12962C7.8125 8.30462 7.67083 8.44212 7.5 8.44212Z"/>
</mask>
<path d="M7.5 8.44212C7.32917 8.44212 7.1875 8.30045 7.1875 8.12962V6.88379C7.1875 6.71296 7.32917 6.57129 7.5 6.57129C7.67083 6.57129 7.8125 6.71296 7.8125 6.88379V8.12962C7.8125 8.30462 7.67083 8.44212 7.5 8.44212Z" fill="#292D32"/>
<path d="M7.5 7.44212C7.88145 7.44212 8.1875 7.74817 8.1875 8.12962H6.1875C6.1875 8.85274 6.77688 9.44212 7.5 9.44212V7.44212ZM8.1875 8.12962V6.88379H6.1875V8.12962H8.1875ZM8.1875 6.88379C8.1875 7.26524 7.88145 7.57129 7.5 7.57129V5.57129C6.77688 5.57129 6.1875 6.16067 6.1875 6.88379H8.1875ZM7.5 7.57129C7.11855 7.57129 6.8125 7.26524 6.8125 6.88379H8.8125C8.8125 6.16067 8.22312 5.57129 7.5 5.57129V7.57129ZM6.8125 6.88379V8.12962H8.8125V6.88379H6.8125ZM6.8125 8.12962C6.8125 7.74366 7.12726 7.44212 7.5 7.44212V9.44212C8.21441 9.44212 8.8125 8.86557 8.8125 8.12962H6.8125Z" fill="#6922D1" mask="url(#path-9-inside-5_3227_836)"/>
</svg>
